<mxfile host="app.diagrams.net" etag="B5DMaPqYkcjcdIlGW71r" modified="2023-09-25T18:56:12.330Z" agent="Mozilla/5.0 (X11; Ubuntu; Linux x86_64; rv:109.0) Gecko/20100101 Firefox/117.0" version="21.8.2" type="device" pages="2">
  <diagram id="qoV_xFIms2ia1VFQjh2e" name="Уступ">
    <mxGraphModel dx="1364" dy="795" grid="1" gridSize="10" guides="1" tooltips="1" connect="1" arrows="1" fold="1" page="1" pageScale="1" pageWidth="827" pageHeight="1169" math="0" shadow="0">
      <root>
        <mxCell id="0" />
        <mxCell id="1" parent="0" />
        <UserObject label="" tooltip="" id="x-wTn0b4A8iaDGU15ReG-1">
          <mxCell style="strokeWidth=2;html=1;shape=stencil(xVVNb4MwDP01HJmAbFV7nFh37GWTdnap20YNCXKyfvz7hQZUUkpHc6nEAT/De36OrUQs11uoMMoSCSVG7CPKsm+kkkswimxgM1sHTxIXHlw4m7oQdIWFcdgeiMNSoMtoQ2qHB74yDQOXWyRu6iybR8m7/aZ+WF4oKS0JV1J7mU7ekgGX9t/k6MiSlzcnc2piF1VWoUSD5KEXcwsHRNlnsFI6TukrQMl31Or+p/TzuFIapjQP6V56LZaO7OAiwNgNuels5IEFybXsj7sLamZPbrS7ATmWW2RoAVm+hGK3IfUrVzeLrKBe7l6iTZdqj5fq2dV83/PfMgguOwyvSQAFUGFf6KoIOvnxMYYj1zEpA3UfPH4BtMHY8sRrARsvpQ+IVQduDn+g3kmAZxZC8UTPIadcCKXxzi5YvDdpZ3RgPFm+VoR35nbNhXD309BK9AjOqLstz8Af);whiteSpace=wrap;shadow=0;" parent="1" vertex="1">
            <mxGeometry x="104" y="362" width="145.1063829787234" height="170" as="geometry" />
          </mxCell>
        </UserObject>
        <mxCell id="x-wTn0b4A8iaDGU15ReG-2" value="" style="shape=flexArrow;endArrow=classic;html=1;rounded=0;fillColor=#ff0000;gradientColor=#FFFFFF;gradientDirection=radial;" parent="1" edge="1">
          <mxGeometry width="50" height="50" relative="1" as="geometry">
            <mxPoint x="249.11" y="512" as="sourcePoint" />
            <mxPoint x="309.11" y="512" as="targetPoint" />
          </mxGeometry>
        </mxCell>
        <mxCell id="x-wTn0b4A8iaDGU15ReG-3" value="" style="ellipse;whiteSpace=wrap;html=1;strokeColor=none;fillColor=#D6D6D6;rotation=0;" parent="1" vertex="1">
          <mxGeometry x="292" y="362" width="58" height="170" as="geometry" />
        </mxCell>
        <mxCell id="x-wTn0b4A8iaDGU15ReG-4" value="&lt;div&gt;&lt;font style=&quot;font-size: 14px;&quot; color=&quot;#ff0000&quot;&gt;Памятай!&lt;/font&gt;&lt;/div&gt;" style="swimlane;horizontal=0;whiteSpace=wrap;html=1;rotation=0;verticalAlign=top;" parent="1" vertex="1">
          <mxGeometry y="10" width="827" height="220" as="geometry">
            <mxRectangle y="10" width="40" height="220" as="alternateBounds" />
          </mxGeometry>
        </mxCell>
        <mxCell id="x-wTn0b4A8iaDGU15ReG-5" value="&lt;h1 style=&quot;line-height: 120%;&quot; align=&quot;center&quot;&gt;&lt;font style=&quot;font-size: 18px;&quot;&gt;Гэта важна &lt;font color=&quot;#ff0000&quot;&gt;памятаць&lt;/font&gt; у час стварэння і аналізу мадэлі&lt;/font&gt;&lt;br&gt;&lt;/h1&gt;&lt;p&gt;&lt;font style=&quot;font-size: 14px;&quot;&gt;&lt;span style=&quot;&quot;&gt;&lt;span style=&quot;white-space: pre;&quot;&gt;&amp;nbsp;&amp;nbsp;&amp;nbsp;&amp;nbsp;&lt;/span&gt;&lt;/span&gt;Ніхто з людзей не ведае, як на самой справе ўладкаваны свет/прырода/рэальнасць. Але калі рэальнасць ўнутранне&amp;nbsp;&lt;/font&gt;&lt;font style=&quot;font-size: 14px;&quot;&gt;не &lt;/font&gt;&lt;font style=&quot;font-size: 14px;&quot;&gt; супярэчлівая, то ёсць некаторы ўнутраны лад, які вызначае прычынна-выніковыя сувязі паміж з&#39;явамі. У тым ліку, у некаторых прычын могуць быць не дэтэрмінаваныя, а імавернасныя вынікі.&lt;/font&gt;&lt;/p&gt;&lt;p&gt;&lt;font style=&quot;font-size: 14px;&quot;&gt;&lt;span style=&quot;&quot;&gt;&lt;span style=&quot;white-space: pre;&quot;&gt;&amp;nbsp;&amp;nbsp;&amp;nbsp;&amp;nbsp;&lt;/span&gt;&lt;/span&gt;Мы можам спрабаваць здагадацца аб гэтых прычынна-выніковых сувязях, але, напэўна, ніколі не здолеем цалкам дакладна высветліць, ці абсалютна правільная наша здагадка. Аднак, мы можам знайсці абвяржэнне для нашай здагадкі і такім чынам дакладна высветліць, што здагадка няправільная або недастаткова правільная.&lt;br&gt;&lt;/font&gt;&lt;/p&gt;&lt;p&gt;&lt;font style=&quot;font-size: 14px;&quot;&gt;&lt;span style=&quot;&quot;&gt;&lt;span style=&quot;white-space: pre;&quot;&gt;&amp;nbsp;&amp;nbsp;&amp;nbsp;&amp;nbsp;&lt;/span&gt;&lt;/span&gt;Таму ўвага да крытыкі вельмі важная. І важна заўважаць, калі назіранні за жыццём не зусім супадаюць з мадэллю. Заўважаныя адхіленні ад чаканняў кажуць аб тым, что недзе памылка — або ў мадэлі або ў назіраннях.&lt;br&gt;&lt;/font&gt;&lt;span lang=&quot;be&quot; class=&quot;HwtZe&quot;&gt;&lt;/span&gt;&lt;span lang=&quot;be&quot; class=&quot;HwtZe&quot;&gt;&lt;/span&gt;&lt;span lang=&quot;be&quot; class=&quot;HwtZe&quot;&gt;&lt;/span&gt;&lt;span lang=&quot;be&quot; class=&quot;HwtZe&quot;&gt;&lt;/span&gt;&lt;span lang=&quot;be&quot; class=&quot;HwtZe&quot;&gt;&lt;/span&gt;&lt;/p&gt;" style="text;html=1;strokeColor=none;fillColor=none;spacing=0;spacingTop=-15;whiteSpace=wrap;overflow=hidden;rounded=0;verticalAlign=middle;spacingBottom=0;" parent="x-wTn0b4A8iaDGU15ReG-4" vertex="1">
          <mxGeometry x="25" y="5" width="800" height="215" as="geometry" />
        </mxCell>
        <mxCell id="x-wTn0b4A8iaDGU15ReG-6" value="" style="whiteSpace=wrap;html=1;shape=mxgraph.basic.pointed_oval;rotation=0;fillColor=#009900;" parent="1" vertex="1">
          <mxGeometry x="315.063829787234" y="399.77777777777777" width="9.23404255319149" height="13.222222222222223" as="geometry" />
        </mxCell>
        <mxCell id="x-wTn0b4A8iaDGU15ReG-7" value="" style="whiteSpace=wrap;html=1;shape=mxgraph.basic.pointed_oval;rotation=0;fillColor=#009900;" parent="1" vertex="1">
          <mxGeometry x="328.25531914893617" y="462.1111111111111" width="9.23404255319149" height="13.222222222222223" as="geometry" />
        </mxCell>
        <mxCell id="x-wTn0b4A8iaDGU15ReG-8" value="" style="whiteSpace=wrap;html=1;shape=mxgraph.basic.pointed_oval;rotation=0;fillColor=#009900;" parent="1" vertex="1">
          <mxGeometry x="328.25531914893617" y="418.6666666666667" width="9.23404255319149" height="13.222222222222223" as="geometry" />
        </mxCell>
        <mxCell id="x-wTn0b4A8iaDGU15ReG-9" value="" style="group;dashed=1;dashPattern=12 12;" parent="1" vertex="1" connectable="0">
          <mxGeometry x="684.4255319148936" y="362" width="39.57446808510638" height="170" as="geometry" />
        </mxCell>
        <mxCell id="x-wTn0b4A8iaDGU15ReG-10" value="" style="verticalLabelPosition=bottom;verticalAlign=top;html=1;shape=mxgraph.basic.arc;startAngle=0.47786219334910734;endAngle=0.9933723776933644;" parent="x-wTn0b4A8iaDGU15ReG-9" vertex="1">
          <mxGeometry width="39.57446808510638" height="170" as="geometry" />
        </mxCell>
        <mxCell id="x-wTn0b4A8iaDGU15ReG-11" value="" style="verticalLabelPosition=bottom;verticalAlign=top;html=1;shape=mxgraph.basic.arc;startAngle=0.9794252440875133;endAngle=0.4749763784943746;fillColor=default;strokeColor=#949494;dashed=1;dashPattern=8 8;" parent="x-wTn0b4A8iaDGU15ReG-9" vertex="1">
          <mxGeometry width="39.57446808510638" height="170" as="geometry" />
        </mxCell>
        <mxCell id="x-wTn0b4A8iaDGU15ReG-12" value="&lt;font style=&quot;font-size: 18px;&quot;&gt;&lt;b&gt;Беларусь&lt;/b&gt;&lt;/font&gt;" style="text;html=1;strokeColor=none;fillColor=none;align=center;verticalAlign=middle;whiteSpace=wrap;rounded=0;" parent="1" vertex="1">
          <mxGeometry x="384" y="332" width="60" height="30" as="geometry" />
        </mxCell>
        <mxCell id="x-wTn0b4A8iaDGU15ReG-13" value="" style="curved=1;endArrow=classic;html=1;rounded=0;dashed=1;dashPattern=8 8;strokeColor=#949494;strokeWidth=2;" parent="1" edge="1">
          <mxGeometry width="50" height="50" relative="1" as="geometry">
            <mxPoint x="265" y="472" as="sourcePoint" />
            <mxPoint x="515" y="389" as="targetPoint" />
            <Array as="points">
              <mxPoint x="435" y="462" />
              <mxPoint x="375" y="412" />
              <mxPoint x="415" y="388.56" />
            </Array>
          </mxGeometry>
        </mxCell>
        <mxCell id="x-wTn0b4A8iaDGU15ReG-14" value="&lt;font style=&quot;font-size: 15px;&quot;&gt;Людзі з уладай&lt;/font&gt;" style="text;html=1;strokeColor=none;fillColor=none;align=center;verticalAlign=middle;whiteSpace=wrap;rounded=0;fontSize=15;" parent="1" vertex="1">
          <mxGeometry x="470" y="431.84" width="160" height="30" as="geometry" />
        </mxCell>
        <mxCell id="x-wTn0b4A8iaDGU15ReG-15" value="" style="shape=flexArrow;endArrow=classic;html=1;rounded=0;strokeColor=#000000;fillColor=#FF0000;gradientColor=#009900;gradientDirection=east;" parent="1" edge="1">
          <mxGeometry width="50" height="50" relative="1" as="geometry">
            <mxPoint x="396" y="512" as="sourcePoint" />
            <mxPoint x="333.49" y="512" as="targetPoint" />
          </mxGeometry>
        </mxCell>
        <mxCell id="x-wTn0b4A8iaDGU15ReG-16" value="" style="verticalLabelPosition=bottom;verticalAlign=top;html=1;shape=mxgraph.basic.arc;startAngle=0.47695237508378646;endAngle=0.9936371943260041;strokeWidth=7;strokeColor=#949494;gradientColor=none;shadow=0;" parent="1" vertex="1">
          <mxGeometry x="289.84" y="361.89" width="59.68" height="170" as="geometry" />
        </mxCell>
        <mxCell id="x-wTn0b4A8iaDGU15ReG-17" value="" style="verticalLabelPosition=bottom;verticalAlign=top;html=1;shape=mxgraph.basic.arc;startAngle=0.47786219334910734;endAngle=0.9933723776933644;" parent="1" vertex="1">
          <mxGeometry x="121.19148936170212" y="362" width="39.57446808510638" height="170" as="geometry" />
        </mxCell>
        <mxCell id="x-wTn0b4A8iaDGU15ReG-18" value="" style="verticalLabelPosition=bottom;verticalAlign=top;html=1;shape=mxgraph.basic.arc;startAngle=0.9794252440875133;endAngle=0.4749763784943746;fillColor=default;strokeColor=#949494;dashed=1;dashPattern=8 8;" parent="1" vertex="1">
          <mxGeometry x="121.19148936170212" y="362" width="39.57446808510638" height="170" as="geometry" />
        </mxCell>
        <mxCell id="x-wTn0b4A8iaDGU15ReG-19" value="&lt;font style=&quot;font-size: 15px;&quot;&gt;Астатнія грамадзяне&lt;br style=&quot;font-size: 15px;&quot;&gt;&lt;/font&gt;" style="text;html=1;strokeColor=none;fillColor=none;align=center;verticalAlign=middle;whiteSpace=wrap;rounded=0;fontSize=15;" parent="1" vertex="1">
          <mxGeometry x="132" y="431.84" width="160" height="30" as="geometry" />
        </mxCell>
        <mxCell id="x-wTn0b4A8iaDGU15ReG-20" value="" style="shape=flexArrow;endArrow=classic;html=1;rounded=0;entryX=3.349;entryY=0.094;entryDx=0;entryDy=0;entryPerimeter=0;fillColor=#FF0000;gradientColor=#009900;" parent="1" edge="1">
          <mxGeometry width="50" height="50" relative="1" as="geometry">
            <mxPoint x="614" y="278" as="sourcePoint" />
            <mxPoint x="547.9612765957447" y="371.98" as="targetPoint" />
            <Array as="points">
              <mxPoint x="604" y="328" />
            </Array>
          </mxGeometry>
        </mxCell>
        <mxCell id="x-wTn0b4A8iaDGU15ReG-21" value="Знешнія гульцы" style="swimlane;horizontal=0;whiteSpace=wrap;html=1;" parent="1" vertex="1">
          <mxGeometry x="627" y="241" width="200" height="99" as="geometry" />
        </mxCell>
        <mxCell id="x-wTn0b4A8iaDGU15ReG-22" value="Расія.&lt;br style=&quot;font-size: 14px;&quot;&gt;&lt;div style=&quot;font-size: 14px;&quot;&gt;Невядомые мне сілы.&lt;br style=&quot;font-size: 14px;&quot;&gt;&lt;/div&gt;" style="text;html=1;align=left;verticalAlign=middle;resizable=0;points=[];autosize=1;strokeColor=none;fillColor=none;fontSize=14;" parent="x-wTn0b4A8iaDGU15ReG-21" vertex="1">
          <mxGeometry x="30" y="1" width="160" height="50" as="geometry" />
        </mxCell>
        <mxCell id="x-wTn0b4A8iaDGU15ReG-23" value="Знешнія гульцы" style="swimlane;horizontal=0;whiteSpace=wrap;html=1;" parent="1" vertex="1">
          <mxGeometry y="241" width="200" height="99" as="geometry" />
        </mxCell>
        <mxCell id="x-wTn0b4A8iaDGU15ReG-24" value="Польшча, Літва.&lt;br style=&quot;font-size: 14px;&quot;&gt;&lt;div style=&quot;font-size: 14px;&quot;&gt;Невядомые мне сілы.&lt;br style=&quot;font-size: 14px;&quot;&gt;&lt;/div&gt;" style="text;html=1;align=left;verticalAlign=middle;resizable=0;points=[];autosize=1;strokeColor=none;fillColor=none;fontSize=14;" parent="x-wTn0b4A8iaDGU15ReG-23" vertex="1">
          <mxGeometry x="30" y="1" width="160" height="50" as="geometry" />
        </mxCell>
        <mxCell id="x-wTn0b4A8iaDGU15ReG-25" value="" style="shape=flexArrow;endArrow=classic;html=1;rounded=0;entryX=1.213;entryY=0.094;entryDx=0;entryDy=0;entryPerimeter=0;fillColor=#CCCCCC;" parent="1" edge="1">
          <mxGeometry width="50" height="50" relative="1" as="geometry">
            <mxPoint x="210" y="290" as="sourcePoint" />
            <mxPoint x="271.01404255319153" y="371.98" as="targetPoint" />
          </mxGeometry>
        </mxCell>
        <mxCell id="x-wTn0b4A8iaDGU15ReG-26" value="&lt;font style=&quot;font-size: 14px;&quot;&gt;Законы.&lt;br&gt;&lt;br&gt;&lt;br&gt;Жорсткае пакаранне за супраціў.&lt;br&gt;Праўладная прапаганда.&lt;br&gt;Маральны ціск.&lt;br&gt;&lt;br&gt;Іншыя, невядомыя мне, метады.&lt;br&gt;&lt;/font&gt;" style="text;html=1;strokeColor=none;fillColor=none;align=left;verticalAlign=top;whiteSpace=wrap;rounded=0;" parent="1" vertex="1">
          <mxGeometry x="354" y="531.78" width="290" height="148.22" as="geometry" />
        </mxCell>
        <mxCell id="x-wTn0b4A8iaDGU15ReG-27" value="&lt;font style=&quot;font-size: 14px;&quot;&gt;&lt;strike&gt;Змена сваіх прадстаўнікоў ва ўладзе праз выбары&lt;/strike&gt;, выкарыстанне законаў для дасягнення сваіх мэтаў.&lt;br&gt;Непадпарадкаванне.&lt;br&gt;Народная прапаганда.&lt;br&gt;Маральны ціск.&lt;br&gt;&lt;br&gt;Іншыя, невядомыя мне, метады.&lt;br&gt;&lt;/font&gt;" style="text;html=1;strokeColor=none;fillColor=none;align=right;verticalAlign=top;whiteSpace=wrap;rounded=0;" parent="1" vertex="1">
          <mxGeometry y="532" width="289.84" height="148" as="geometry" />
        </mxCell>
        <mxCell id="x-wTn0b4A8iaDGU15ReG-28" value="&lt;div align=&quot;center&quot;&gt;&lt;font style=&quot;font-size: 15px;&quot;&gt;&lt;b&gt;На самой справе ёсць і іншыя элементы/сілы, якія не паказаны на мадэлі.&lt;/b&gt;&lt;br&gt;&lt;/font&gt;&lt;br&gt;&lt;/div&gt;&lt;font style=&quot;font-size: 15px;&quot;&gt;Вось толькі некалькі прыкладаў таго, што не паказана на мадэлі:&lt;br&gt;&lt;span style=&quot;&quot;&gt;&lt;span style=&quot;&quot;&gt;&amp;nbsp;&amp;nbsp;&amp;nbsp;&amp;nbsp;&lt;/span&gt;&lt;/span&gt;- Ёсць людзі, якія фармальна без улады, але, напрыклад, пішуць палітычныя даносы. І такім чынам ствараюць дадатковы ціск на грамадзян.&lt;br&gt;&lt;span style=&quot;&quot;&gt;&lt;span style=&quot;&quot;&gt;&amp;nbsp;&amp;nbsp;&amp;nbsp;&amp;nbsp;&lt;/span&gt;&lt;/span&gt;- Ёсць людзі, якія маюць нейкую ўладу і спрабуюць дапамагчы астатнім змяніць баланс.&lt;br&gt;&lt;span style=&quot;&quot;&gt;&lt;span style=&quot;&quot;&gt;&amp;nbsp;&amp;nbsp;&amp;nbsp;&amp;nbsp;&lt;/span&gt;&lt;/span&gt;- У Польшчы і Літве ёсць сілы, якія дапамагаюць дыктатару.&lt;br&gt;&lt;/font&gt;&lt;div&gt;&lt;font style=&quot;font-size: 15px;&quot;&gt;&lt;span style=&quot;&quot;&gt;&lt;span style=&quot;&quot;&gt;&amp;nbsp;&amp;nbsp;&amp;nbsp;&amp;nbsp;&lt;/span&gt;&lt;/span&gt;- У Расіі ёсць сілы, якія дапамагаюць грамадзянам змяніць баланс.&lt;/font&gt;&lt;/div&gt;&lt;div&gt;&lt;font style=&quot;font-size: 15px;&quot;&gt;&lt;span style=&quot;&quot;&gt;&lt;/span&gt;&lt;/font&gt;&lt;font style=&quot;font-size: 15px;&quot;&gt;&amp;nbsp;&amp;nbsp;&amp;nbsp; - Ёсць людзі, якія перастаюць быць часткай працэсаў пасля таго як пакінулі Беларусь.&lt;/font&gt;&lt;/div&gt;&lt;div&gt;&lt;font style=&quot;font-size: 15px;&quot;&gt;&amp;nbsp;&amp;nbsp;&amp;nbsp; - Ёсць людзі, якія становяцца часткай працэсаў.&lt;br&gt;&lt;/font&gt;&lt;/div&gt;&lt;font style=&quot;font-size: 15px;&quot;&gt;&lt;br&gt;Я лічу, што гэтай мадэлі дастаткова, каб зразумець, што існуючая сітуацыя з&#39;яўляецца балансам ўсіх дзейнічаючых сіл.&lt;br&gt;&lt;br&gt;Паколькі сістэма складаная, з мноствам складаных узаемасувязяў, то тэарэтычна &lt;/font&gt;&lt;font style=&quot;font-size: 15px;&quot;&gt;невялікая &lt;/font&gt;&lt;font style=&quot;font-size: 15px;&quot;&gt;змена фактара, які ўздзейнічае на мноства іншых фактараў, можа прывесці да каскадных эфектаў і да вельмі вялікіх змен у будучым балансе. Паспрабую знайсці такі фактар.&lt;br&gt;&lt;br&gt;&lt;/font&gt;&lt;div&gt;&lt;font style=&quot;font-size: 15px;&quot;&gt;Далей буду называць &quot;астатніх грамадзян&quot; са схемы вышэй &lt;b&gt;грамадствам&lt;/b&gt;. А &quot;людзей з уладай&quot; &lt;b&gt;уладай&lt;/b&gt;. &lt;/font&gt;&lt;font style=&quot;font-size: 15px;&quot;&gt;Буду абапірацца на гіпотэзу, што ёсць чатыры асноўныя прычыны, чаму чалавек нешта не робіць: 1) не ведае, што так можна/патрэбна, 2) не ўмее, 3) не можа, 4) не жадае.&lt;/font&gt;&lt;/div&gt;&lt;font style=&quot;font-size: 15px;&quot;&gt;&lt;/font&gt;" style="text;html=1;strokeColor=none;fillColor=none;align=left;verticalAlign=middle;whiteSpace=wrap;rounded=0;rotation=0;" parent="1" vertex="1">
          <mxGeometry y="680" width="827" height="400" as="geometry" />
        </mxCell>
        <UserObject label="&lt;span&gt;Спасылка на &lt;/span&gt;&lt;font style=&quot;font-size: 17px;&quot;&gt;&lt;span style=&quot;font-size: 17px;&quot;&gt;дрэва цяперашняй рэальнасці для ўзаемаадносін паміж грамадствам і ўладай Беларусі.&lt;/span&gt;&lt;/font&gt;" link="data:page/id,jb7ZAXrOw7EJT6aN6Qqk" id="5Dem1vvIQLIGWhxnLmdw-1">
          <mxCell style="text;html=1;strokeColor=none;fillColor=none;align=center;verticalAlign=middle;whiteSpace=wrap;rounded=0;fontColor=#0000FF;fontStyle=4;fontSize=17;" parent="1" vertex="1">
            <mxGeometry y="1120" width="827" height="40" as="geometry" />
          </mxCell>
        </UserObject>
      </root>
    </mxGraphModel>
  </diagram>
  <diagram name="ДЦР" id="jb7ZAXrOw7EJT6aN6Qqk">
    <mxGraphModel dx="5499" dy="795" grid="1" gridSize="10" guides="1" tooltips="1" connect="1" arrows="1" fold="1" page="1" pageScale="1" pageWidth="827" pageHeight="1169" background="#ffffff" math="0" shadow="0">
      <root>
        <mxCell id="0" />
        <mxCell id="1" parent="0" />
        <mxCell id="8KlCnt_39-ksAiERNVki-5" value="У гэтым слупку ўсе (&lt;font color=&quot;#ff0000&quot;&gt;? усе ?&lt;/font&gt;) магчымыя прычыны чаму грамадзянін не спрабуе высветліць, наколькі важнае яго патрабаванне да ўлады для яго самога." style="swimlane;whiteSpace=wrap;html=1;fontSize=14;verticalAlign=top;fillColor=#E6E6E6;strokeColor=#B3B3B3;fontStyle=0;rounded=1;fillStyle=cross-hatch;glass=0;shadow=0;swimlaneFillColor=#E6E6E6;spacing=2;swimlaneLine=0;startSize=23;" parent="1" vertex="1">
          <mxGeometry x="1640" y="1800" width="400" height="1120" as="geometry" />
        </mxCell>
        <mxCell id="j5JjeeWauFz4Uhg9E__5-1" value="Грамадзянін &lt;b&gt;не жадае спрабаваць высветліць&lt;/b&gt;, як дадзенае асобнае яго патрабаванне да ўлады ўплывае на яго асабістыя інтарэсы." style="text;html=1;align=left;verticalAlign=top;whiteSpace=wrap;rounded=0;fontSize=16;strokeColor=default;fillColor=default;" parent="8KlCnt_39-ksAiERNVki-5" vertex="1">
          <mxGeometry x="40" y="960" width="320" height="120" as="geometry" />
        </mxCell>
        <mxCell id="8KlCnt_39-ksAiERNVki-6" value="Грамадзянін &lt;b&gt;не можа паспрабаваць высветліць&lt;/b&gt;,&amp;nbsp;наколькі важнае яго патрабаванне да ўлады для яго самога." style="text;html=1;align=left;verticalAlign=top;whiteSpace=wrap;rounded=0;fontSize=16;strokeColor=default;rotation=0;fillColor=default;" parent="8KlCnt_39-ksAiERNVki-5" vertex="1">
          <mxGeometry x="40" y="480" width="320" height="120" as="geometry" />
        </mxCell>
        <mxCell id="8KlCnt_39-ksAiERNVki-8" value="Грамадзянін &lt;b&gt;наогул не ведае, што можна спрабаваць высветліць&lt;/b&gt;, наколькі важнае яго патрабаванне да ўлады для яго самога." style="text;html=1;align=left;verticalAlign=top;whiteSpace=wrap;rounded=0;fontSize=16;strokeColor=default;rotation=0;fillColor=default;" parent="8KlCnt_39-ksAiERNVki-5" vertex="1">
          <mxGeometry x="40" y="120" width="320" height="120" as="geometry" />
        </mxCell>
        <mxCell id="8KlCnt_39-ksAiERNVki-9" value="Грамадзянін &lt;b&gt;не ўмее спрабаваць высвятляць&lt;/b&gt;, наколькі важнае яго патрабаванне да ўлады для яго самога. Напрыклад:&lt;br&gt;не ведае як гэта рабіць,&lt;br&gt;не ўмее карыстацца нейкімі інструментамі, якія дапамагаюць гэта зрабіць." style="text;html=1;align=left;verticalAlign=top;whiteSpace=wrap;rounded=0;fontSize=16;strokeColor=default;rotation=0;fillColor=default;" parent="8KlCnt_39-ksAiERNVki-5" vertex="1">
          <mxGeometry x="40" y="280" width="320" height="160" as="geometry" />
        </mxCell>
        <mxCell id="lAl6IwTCLYnLzIhwObD8-4" value="У гэтым слупку ўсе&amp;nbsp;(&lt;font color=&quot;#ff0000&quot;&gt;? усе ?&lt;/font&gt;) магчымыя тыпы адносін грамадзяніна да свайго ўласнага патрабавання да ўлады" style="swimlane;whiteSpace=wrap;html=1;fontSize=14;verticalAlign=top;fillColor=#E6E6E6;strokeColor=#B3B3B3;fontStyle=0;rounded=1;fillStyle=hatch;glass=0;shadow=0;swimlaneFillColor=#E6E6E6;spacing=2;swimlaneLine=0;" parent="1" vertex="1">
          <mxGeometry x="880" y="1080" width="400" height="2800" as="geometry" />
        </mxCell>
        <mxCell id="hciFa1by5LvJK5wFZR8x-1" value="Грамадзянін &lt;b&gt;не ведае, што&lt;/b&gt; ў яго ёсць нейкае патрабаванне да ўлады." style="text;html=1;align=left;verticalAlign=top;whiteSpace=wrap;rounded=0;fontSize=16;strokeColor=default;fillColor=default;" parent="lAl6IwTCLYnLzIhwObD8-4" vertex="1">
          <mxGeometry x="40" y="80" width="320" height="80" as="geometry" />
        </mxCell>
        <mxCell id="u4h5CCwdaAVt-h-GZreR-3" value="Грамадзянін &lt;b&gt;лічыць, што&lt;/b&gt; выкананне дадзенага асобнага яго патрабавання да ўлады не істотна ўплывае на яго асабістыя інтарэсы." style="text;html=1;align=left;verticalAlign=top;whiteSpace=wrap;rounded=0;fontSize=16;strokeColor=default;rotation=0;fillColor=default;" parent="lAl6IwTCLYnLzIhwObD8-4" vertex="1">
          <mxGeometry x="40" y="1840" width="320" height="120" as="geometry" />
        </mxCell>
        <mxCell id="utNHYfiI1P-ElOVeHikR-1" value="Грамадзянін &lt;b&gt;лічыць, што&lt;/b&gt; выкананне дадзенага асобнага яго &lt;u&gt;пажадання&lt;/u&gt; да ўлады істотна &lt;b&gt;павялічыць пазітыў існуючай &lt;u&gt;добрай&lt;/u&gt;&lt;/b&gt; для яго &lt;b&gt;сітуацыі&lt;/b&gt;." style="text;html=1;strokeColor=#82b366;fillColor=#d5e8d4;align=left;verticalAlign=top;whiteSpace=wrap;rounded=0;fontSize=16;rotation=0;" parent="lAl6IwTCLYnLzIhwObD8-4" vertex="1">
          <mxGeometry x="40" y="2080" width="320" height="120" as="geometry" />
        </mxCell>
        <mxCell id="utNHYfiI1P-ElOVeHikR-2" value="Грамадзянін &lt;b&gt;лічыць, што&lt;/b&gt; выкананне дадзенага асобнага яго &lt;u&gt;патрабавання&lt;/u&gt; да ўлады істотна &lt;b&gt;зменшыць негатыў існуючай &lt;u&gt;дрэннай&lt;/u&gt;&lt;/b&gt; для яго &lt;b&gt;сітуацыі&lt;/b&gt;." style="text;html=1;strokeColor=#b85450;fillColor=#f8cecc;align=left;verticalAlign=top;whiteSpace=wrap;rounded=0;fontSize=16;rotation=0;" parent="lAl6IwTCLYnLzIhwObD8-4" vertex="1">
          <mxGeometry x="40" y="2640" width="320" height="120" as="geometry" />
        </mxCell>
        <mxCell id="j5JjeeWauFz4Uhg9E__5-5" value="Грамадзянін ведае, што ў яго ёсць патрабаванне да ўлады, але &lt;b&gt;не мае меркавання, наколькі яно важнае&lt;/b&gt; для яго самога." style="text;html=1;align=left;verticalAlign=top;whiteSpace=wrap;rounded=0;fontSize=16;strokeColor=default;rotation=0;fillColor=default;" parent="lAl6IwTCLYnLzIhwObD8-4" vertex="1">
          <mxGeometry x="40" y="1360" width="320" height="120" as="geometry" />
        </mxCell>
        <mxCell id="trFHjS8OtI2W3_3FPiBj-55" value="&lt;font style=&quot;font-size: 16px;&quot;&gt;&lt;b&gt;і&lt;/b&gt;&lt;/font&gt;" style="text;html=1;strokeColor=none;fillColor=none;align=center;verticalAlign=middle;whiteSpace=wrap;rounded=0;" parent="1" vertex="1">
          <mxGeometry x="-420" y="1240" width="120" height="80" as="geometry" />
        </mxCell>
        <mxCell id="trFHjS8OtI2W3_3FPiBj-12" value="&lt;font style=&quot;font-size: 16px;&quot;&gt;&lt;b&gt;і&lt;/b&gt;&lt;/font&gt;" style="text;html=1;strokeColor=none;fillColor=none;align=center;verticalAlign=middle;whiteSpace=wrap;rounded=0;" parent="1" vertex="1">
          <mxGeometry x="-60" y="959" width="120" height="80" as="geometry" />
        </mxCell>
        <mxCell id="1uukreD7585R6irRMM3L-3" value="&lt;font style=&quot;font-size: 16px;&quot;&gt;&lt;b&gt;і&lt;/b&gt;&lt;/font&gt;" style="text;html=1;strokeColor=none;fillColor=none;align=center;verticalAlign=middle;whiteSpace=wrap;rounded=0;" parent="1" vertex="1">
          <mxGeometry x="300" y="1240" width="120" height="80" as="geometry" />
        </mxCell>
        <mxCell id="trFHjS8OtI2W3_3FPiBj-42" value="" style="rounded=0;orthogonalLoop=1;jettySize=auto;html=1;elbow=vertical;exitX=0.5;exitY=1;exitDx=0;exitDy=0;entryX=0;entryY=0.5;entryDx=0;entryDy=0;edgeStyle=orthogonalEdgeStyle;curved=1;dashed=1;strokeColor=#001DBC;dashPattern=12 12;" parent="1" source="trFHjS8OtI2W3_3FPiBj-28" target="trFHjS8OtI2W3_3FPiBj-41" edge="1">
          <mxGeometry relative="1" as="geometry">
            <mxPoint x="-1341" y="2888" as="sourcePoint" />
            <mxPoint x="-1190" y="3013" as="targetPoint" />
          </mxGeometry>
        </mxCell>
        <UserObject label="2023-09-XX. Версія №1XX. &lt;font style=&quot;font-size: 18px;&quot;&gt;Дрэва цяперашняй рэальнасці для ўзаемаадносін паміж грамадствам і ўладай Беларусі.&lt;/font&gt;" id="QYJsRXK22Pn9gDYH14T6-1">
          <mxCell style="text;html=1;strokeColor=none;fillColor=none;align=center;verticalAlign=middle;whiteSpace=wrap;rounded=0;fontColor=#000000;fontStyle=0;fontSize=18;" parent="1" vertex="1">
            <mxGeometry x="-440" y="1" width="827" height="40" as="geometry" />
          </mxCell>
        </UserObject>
        <mxCell id="BJcEn0zL77pIYxWyM-6r-1" value="У гэтым слупку ўсе (&lt;font color=&quot;#ff0000&quot;&gt;? усе ?&lt;/font&gt;) магчымыя прычыны чаму грамадзянін не спрабуе высветліць, як дадзенае асобнае ўздзеянне ўлады на грамадства ўплывае на яго асабістыя інтарэсы." style="swimlane;whiteSpace=wrap;html=1;fontSize=14;verticalAlign=top;fillColor=#E6E6E6;strokeColor=#B3B3B3;fontStyle=0;rounded=1;fillStyle=cross-hatch;glass=0;shadow=0;swimlaneFillColor=#E6E6E6;spacing=2;swimlaneLine=0;" parent="1" vertex="1">
          <mxGeometry x="-2040" y="1800" width="400" height="1120" as="geometry">
            <mxRectangle x="-1640" y="1440" width="970" height="50" as="alternateBounds" />
          </mxGeometry>
        </mxCell>
        <mxCell id="sWhszSgmb0RcljNFikNW-1" value="Грамадзянін &lt;b&gt;наогул не ведае, што можна спрабаваць высветліць&lt;/b&gt;, як асобнае ўздзеянне ўлады на грамадства ўплывае на яго асабістыя інтарэсы." style="text;html=1;align=left;verticalAlign=top;whiteSpace=wrap;rounded=0;fontSize=16;strokeColor=default;rotation=0;fillColor=default;" parent="BJcEn0zL77pIYxWyM-6r-1" vertex="1">
          <mxGeometry x="40" y="120" width="320" height="120" as="geometry" />
        </mxCell>
        <mxCell id="Z-fySZ9CyFiNbup-F0ZK-1" value="Грамадзянін &lt;b&gt;не ўмее спрабаваць высвятляць&lt;/b&gt;, як асобнае ўздзеянне ўлады на грамадства ўплывае на яго асабістыя інтарэсы. Напрыклад:&lt;br&gt;не ведае як гэта рабіць,&lt;br&gt;не ўмее карыстацца нейкімі інструментамі, якія дапамагаюць гэта зрабіць." style="text;html=1;align=left;verticalAlign=top;whiteSpace=wrap;rounded=0;fontSize=16;strokeColor=default;rotation=0;fillColor=default;" parent="BJcEn0zL77pIYxWyM-6r-1" vertex="1">
          <mxGeometry x="40" y="280" width="320" height="160" as="geometry" />
        </mxCell>
        <mxCell id="Z-fySZ9CyFiNbup-F0ZK-2" value="Грамадзянін &lt;b&gt;не можа паспрабаваць высветліць&lt;/b&gt;, як асобнае ўздзеянне ўлады на грамадства ўплывае на яго асабістыя інтарэсы." style="text;html=1;align=left;verticalAlign=top;whiteSpace=wrap;rounded=0;fontSize=16;strokeColor=default;rotation=0;fillColor=default;" parent="BJcEn0zL77pIYxWyM-6r-1" vertex="1">
          <mxGeometry x="40" y="480" width="320" height="120" as="geometry" />
        </mxCell>
        <mxCell id="ZGO1qrQpXi79sG8c-zsR-1" value="Грамадзянін &lt;b&gt;не жадае спрабаваць высветліць&lt;/b&gt;, як дадзенае асобнае ўздзеянне ўлады на грамадства ўплывае на яго асабістыя інтарэсы." style="text;html=1;align=left;verticalAlign=top;whiteSpace=wrap;rounded=0;fontSize=16;strokeColor=default;fillColor=default;" parent="BJcEn0zL77pIYxWyM-6r-1" vertex="1">
          <mxGeometry x="40" y="960" width="320" height="120" as="geometry" />
        </mxCell>
        <mxCell id="JhPQRlO-KKgyaNoFn7eW-7" value="У гэтым слупку ўсе (&lt;font color=&quot;#ff0000&quot;&gt;? усе ?&lt;/font&gt;) магчымыя прычыны чаму грамадзянін не ведае пра дадзенае асобнае ўздзеянне ўлады на грамадства" style="swimlane;whiteSpace=wrap;html=1;fontSize=14;verticalAlign=top;fillColor=#E6E6E6;strokeColor=#B3B3B3;fontStyle=0;rounded=1;fillStyle=zigzag-line;glass=0;shadow=0;swimlaneFillColor=#E6E6E6;spacing=2;swimlaneLine=0;" parent="1" vertex="1">
          <mxGeometry x="-2040" y="920" width="400" height="560" as="geometry">
            <mxRectangle x="-1280" y="1480" width="900" height="30" as="alternateBounds" />
          </mxGeometry>
        </mxCell>
        <mxCell id="TJLECN_oBxhWEtQTq3mC-1" value="&lt;b&gt;Грамадзянін не ведае&lt;/b&gt;, што можна даведвацца пра ўздзеянне ўлады на грамадства.&lt;br&gt; " style="text;html=1;align=left;verticalAlign=top;whiteSpace=wrap;rounded=0;fontSize=16;strokeColor=default;rotation=0;fillColor=default;" parent="JhPQRlO-KKgyaNoFn7eW-7" vertex="1">
          <mxGeometry x="40" y="80" width="320" height="80" as="geometry" />
        </mxCell>
        <mxCell id="KJX486Q6F6tdALyQwLRX-1" value="&lt;b&gt;Грамадзянін не ўмее&lt;/b&gt; даведвацца пра ўздзеянне ўлады на грамадства.&lt;br&gt; " style="text;html=1;align=left;verticalAlign=top;whiteSpace=wrap;rounded=0;fontSize=16;strokeColor=default;rotation=0;fillColor=default;" parent="JhPQRlO-KKgyaNoFn7eW-7" vertex="1">
          <mxGeometry x="40" y="200" width="320" height="80" as="geometry" />
        </mxCell>
        <mxCell id="o80giRriBsHeoGOEMKfS-1" value="&lt;b&gt;Грамадзянін не можа&lt;/b&gt; даведацца пра ўздеянне ўлады на грамадства.&lt;br&gt; " style="text;html=1;align=left;verticalAlign=top;whiteSpace=wrap;rounded=0;fontSize=16;strokeColor=default;rotation=0;fillColor=default;" parent="JhPQRlO-KKgyaNoFn7eW-7" vertex="1">
          <mxGeometry x="40" y="320" width="320" height="80" as="geometry" />
        </mxCell>
        <mxCell id="H2adwTTagYGTjLZC20fY-1" value="&lt;b&gt;Грамадзянін не жадае даведвацца&lt;/b&gt; пра ўздзеянне ўлады на грамадства.&lt;br&gt; " style="text;html=1;align=left;verticalAlign=top;whiteSpace=wrap;rounded=0;fontSize=16;strokeColor=default;rotation=0;fillColor=default;" parent="JhPQRlO-KKgyaNoFn7eW-7" vertex="1">
          <mxGeometry x="40" y="440" width="320" height="80" as="geometry" />
        </mxCell>
        <mxCell id="JhPQRlO-KKgyaNoFn7eW-1" value="&lt;p style=&quot;line-height: 120%; font-size: 14px;&quot;&gt;У гэтым слупку ўсе (&lt;font color=&quot;#ff0000&quot; style=&quot;font-size: 14px;&quot;&gt;? усе ?&lt;/font&gt;) магчымыя рэакцыі грамадзяніна на дадзенае асобнае ўздзеянне ўлады на грамадства&lt;/p&gt;" style="swimlane;whiteSpace=wrap;html=1;fontStyle=0;fillColor=#E6E6E6;rotation=0;rounded=1;fillStyle=hatch;glass=0;shadow=0;swimlaneLine=0;swimlaneFillColor=#E6E6E6;spacing=2;verticalAlign=top;fontSize=14;horizontal=1;strokeColor=#B3B3B3;" parent="1" vertex="1">
          <mxGeometry x="-1280" y="1080" width="400" height="2800" as="geometry">
            <mxRectangle x="-680.96" y="2000" width="690" height="50" as="alternateBounds" />
          </mxGeometry>
        </mxCell>
        <mxCell id="trFHjS8OtI2W3_3FPiBj-24" value="Грамадзянін &lt;b&gt;не ведае, што&lt;/b&gt; дадзенае асобнае &lt;b&gt;ўздзеянне&lt;/b&gt; ўлады на грамадства ўвогуле &lt;b&gt;адбылося&lt;/b&gt;." style="text;html=1;align=left;verticalAlign=top;whiteSpace=wrap;rounded=0;fontSize=16;strokeColor=default;fillColor=default;" parent="JhPQRlO-KKgyaNoFn7eW-1" vertex="1">
          <mxGeometry x="40" y="80" width="320" height="80" as="geometry" />
        </mxCell>
        <mxCell id="trFHjS8OtI2W3_3FPiBj-26" value="Грамадзянін ведае, што дадзенае асобнае ўздзеянне ўлады на грамадства адбылося, але &lt;b&gt;не мае меркавання, як гэтае ўздзеянне ўплывае&lt;/b&gt; на яго асабістыя інтарэсы." style="text;html=1;align=left;verticalAlign=top;whiteSpace=wrap;rounded=0;fontSize=16;strokeColor=default;rotation=0;fillColor=default;" parent="JhPQRlO-KKgyaNoFn7eW-1" vertex="1">
          <mxGeometry x="40" y="1360" width="320" height="120" as="geometry" />
        </mxCell>
        <mxCell id="trFHjS8OtI2W3_3FPiBj-19" value="Грамадзянін &lt;b&gt;лічыць, што&lt;/b&gt; дадзенае асобнае ўздзеянне ўлады на грамадства &lt;b&gt;неістотна ўплывае&lt;/b&gt; на яго асабістыя інтарэсы." style="text;html=1;align=left;verticalAlign=top;whiteSpace=wrap;rounded=0;fontSize=16;strokeColor=default;rotation=0;fillColor=default;" parent="JhPQRlO-KKgyaNoFn7eW-1" vertex="1">
          <mxGeometry x="40" y="1840" width="320" height="120" as="geometry" />
        </mxCell>
        <mxCell id="trFHjS8OtI2W3_3FPiBj-21" value="Грамадзянін &lt;b&gt;лічыць, што&lt;/b&gt; дадзенае асобнае ўздзеянне ўлады на грамадства, &lt;b&gt;істотна пазітыўна ўплывае&lt;/b&gt; на яго асабістыя інтарэсы." style="text;html=1;strokeColor=#82b366;fillColor=#d5e8d4;align=left;verticalAlign=top;whiteSpace=wrap;rounded=0;fontSize=16;rotation=0;" parent="JhPQRlO-KKgyaNoFn7eW-1" vertex="1">
          <mxGeometry x="40" y="2080" width="320" height="120" as="geometry" />
        </mxCell>
        <mxCell id="trFHjS8OtI2W3_3FPiBj-41" value="Грамадзянін &lt;b&gt;лічыць, што&lt;/b&gt; дадзенае асобнае ўздзеянне ўлады на грамадства, &lt;b&gt;істотна негатыўна ўплывае&lt;/b&gt; на яго асабістыя інтарэсы." style="text;html=1;strokeColor=#b85450;fillColor=#f8cecc;align=left;verticalAlign=top;whiteSpace=wrap;rounded=0;fontSize=16;rotation=0;" parent="JhPQRlO-KKgyaNoFn7eW-1" vertex="1">
          <mxGeometry x="40" y="2640" width="320" height="120" as="geometry" />
        </mxCell>
        <mxCell id="trFHjS8OtI2W3_3FPiBj-17" value="" style="ellipse;whiteSpace=wrap;html=1;fillColor=none;strokeColor=#BFBFBF;" parent="1" vertex="1">
          <mxGeometry x="-60" y="959" width="120" height="80" as="geometry" />
        </mxCell>
        <mxCell id="trFHjS8OtI2W3_3FPiBj-3" value="&lt;div style=&quot;font-size: 18px;&quot;&gt;Стан адносін паміж грамадствам і ўладай з&#39;яўляецца заканамерным вынікам паводзін абодвух бакоў.&lt;br&gt;&lt;/div&gt;" style="text;html=1;strokeColor=default;fillColor=none;align=center;verticalAlign=middle;whiteSpace=wrap;rounded=0;fontSize=18;fontStyle=1;strokeWidth=3;" parent="1" vertex="1">
          <mxGeometry x="-220" y="839" width="440" height="120" as="geometry" />
        </mxCell>
        <mxCell id="trFHjS8OtI2W3_3FPiBj-9" value="" style="edgeStyle=orthogonalEdgeStyle;rounded=0;orthogonalLoop=1;jettySize=auto;html=1;curved=1;" parent="1" source="trFHjS8OtI2W3_3FPiBj-5" target="trFHjS8OtI2W3_3FPiBj-3" edge="1">
          <mxGeometry relative="1" as="geometry" />
        </mxCell>
        <mxCell id="trFHjS8OtI2W3_3FPiBj-5" value="Улада нешта робіць з грамадствам, а грамадства неяк рэагуе на гэта ўздзеянне.&lt;br&gt;&lt;font color=&quot;#808080&quot;&gt;(&lt;u&gt;Рэакцыя&lt;/u&gt; грамадства на ўздзеянне ўлады)&lt;/font&gt;" style="text;html=1;strokeColor=default;fillColor=none;align=center;verticalAlign=top;whiteSpace=wrap;rounded=0;fontSize=16;" parent="1" vertex="1">
          <mxGeometry x="-520" y="1120" width="320" height="120" as="geometry" />
        </mxCell>
        <mxCell id="trFHjS8OtI2W3_3FPiBj-11" value="" style="edgeStyle=orthogonalEdgeStyle;rounded=0;orthogonalLoop=1;jettySize=auto;html=1;curved=1;exitX=0.5;exitY=0;exitDx=0;exitDy=0;" parent="1" source="trFHjS8OtI2W3_3FPiBj-10" target="trFHjS8OtI2W3_3FPiBj-3" edge="1">
          <mxGeometry relative="1" as="geometry" />
        </mxCell>
        <mxCell id="trFHjS8OtI2W3_3FPiBj-10" value="Грамадства неяк уплывае на ўладу, а ўлада неяк рэагуе на гэты ўплыў.&lt;br&gt;&lt;font color=&quot;#808080&quot;&gt;&lt;u&gt;(Пажаданні&lt;/u&gt;, &lt;u&gt;патрабаванні&lt;/u&gt; грамадства і яго ўздзеянне на ўладу)&lt;/font&gt;" style="text;html=1;strokeColor=default;fillColor=none;align=center;verticalAlign=top;whiteSpace=wrap;rounded=0;fontSize=16;" parent="1" vertex="1">
          <mxGeometry x="200" y="1120" width="320" height="120" as="geometry" />
        </mxCell>
        <mxCell id="trFHjS8OtI2W3_3FPiBj-15" value="" style="edgeStyle=orthogonalEdgeStyle;rounded=0;orthogonalLoop=1;jettySize=auto;html=1;elbow=vertical;curved=1;entryX=0.591;entryY=1;entryDx=0;entryDy=0;entryPerimeter=0;exitX=0.25;exitY=0;exitDx=0;exitDy=0;" parent="1" source="trFHjS8OtI2W3_3FPiBj-14" target="trFHjS8OtI2W3_3FPiBj-5" edge="1">
          <mxGeometry relative="1" as="geometry">
            <Array as="points">
              <mxPoint x="-250" y="1311" />
              <mxPoint x="-331" y="1311" />
            </Array>
          </mxGeometry>
        </mxCell>
        <mxCell id="trFHjS8OtI2W3_3FPiBj-14" value="Тое, што грамадства дазваляе ўладзе з сабой рабіць, складаецца з таго, што дазваляюць рабіць уладзе з грамадствам асобныя грамадзяне." style="text;html=1;strokeColor=default;fillColor=none;align=left;verticalAlign=top;whiteSpace=wrap;rounded=0;fontSize=16;rotation=0;" parent="1" vertex="1">
          <mxGeometry x="-330" y="1320" width="320" height="90" as="geometry" />
        </mxCell>
        <mxCell id="trFHjS8OtI2W3_3FPiBj-16" value="грамадзянін&lt;br&gt;&lt;b&gt;нічога не робіць&lt;/b&gt;&lt;br&gt;у сувязі з гэтым&lt;br&gt;уздзеяннем." style="text;html=1;strokeColor=#BFBFBF;fillColor=#f5f5f5;align=left;verticalAlign=top;whiteSpace=wrap;rounded=0;fontSize=16;fontColor=#333333;" parent="1" vertex="1">
          <mxGeometry x="-600" y="2320" width="160" height="120" as="geometry" />
        </mxCell>
        <mxCell id="trFHjS8OtI2W3_3FPiBj-22" value="" style="edgeStyle=orthogonalEdgeStyle;rounded=0;orthogonalLoop=1;jettySize=auto;html=1;elbow=vertical;exitX=1;exitY=0.5;exitDx=0;exitDy=0;entryX=0;entryY=0.5;entryDx=0;entryDy=0;targetPerimeterSpacing=50;curved=1;strokeColor=#858585;" parent="1" source="trFHjS8OtI2W3_3FPiBj-21" target="trFHjS8OtI2W3_3FPiBj-16" edge="1">
          <mxGeometry relative="1" as="geometry">
            <mxPoint x="-805" y="930" as="sourcePoint" />
            <mxPoint x="-373" y="680" as="targetPoint" />
          </mxGeometry>
        </mxCell>
        <mxCell id="trFHjS8OtI2W3_3FPiBj-25" value="" style="rounded=0;orthogonalLoop=1;jettySize=auto;html=1;elbow=vertical;exitX=1;exitY=0.5;exitDx=0;exitDy=0;entryX=0;entryY=0.5;entryDx=0;entryDy=0;edgeStyle=orthogonalEdgeStyle;curved=1;strokeColor=#858585;" parent="1" source="trFHjS8OtI2W3_3FPiBj-24" target="trFHjS8OtI2W3_3FPiBj-16" edge="1">
          <mxGeometry relative="1" as="geometry">
            <mxPoint x="-805" y="770" as="sourcePoint" />
            <mxPoint x="-363" y="680" as="targetPoint" />
          </mxGeometry>
        </mxCell>
        <mxCell id="trFHjS8OtI2W3_3FPiBj-35" value="&lt;span&gt;грамадзянін&lt;br&gt;&lt;b&gt;падтрымлівае&lt;/b&gt;&lt;/span&gt;&lt;br&gt;гэтае ўздзеянне" style="text;html=1;strokeColor=#82b366;fillColor=#d5e8d4;align=left;verticalAlign=top;whiteSpace=wrap;rounded=0;fontSize=16;fontStyle=0" parent="1" vertex="1">
          <mxGeometry x="-400" y="2320" width="160" height="120" as="geometry" />
        </mxCell>
        <mxCell id="trFHjS8OtI2W3_3FPiBj-37" value="" style="edgeStyle=orthogonalEdgeStyle;rounded=0;orthogonalLoop=1;jettySize=auto;html=1;elbow=vertical;curved=1;exitX=1;exitY=0.5;exitDx=0;exitDy=0;fillColor=#d5e8d4;strokeColor=#00ff00;entryX=0.5;entryY=1;entryDx=0;entryDy=0;" parent="1" source="trFHjS8OtI2W3_3FPiBj-21" target="trFHjS8OtI2W3_3FPiBj-35" edge="1">
          <mxGeometry relative="1" as="geometry">
            <mxPoint x="-623" y="1417" as="sourcePoint" />
            <mxPoint x="-310" y="2930" as="targetPoint" />
          </mxGeometry>
        </mxCell>
        <mxCell id="trFHjS8OtI2W3_3FPiBj-38" value="" style="edgeStyle=orthogonalEdgeStyle;rounded=0;orthogonalLoop=1;jettySize=auto;html=1;elbow=vertical;curved=1;exitX=0.5;exitY=0;exitDx=0;exitDy=0;entryX=0.466;entryY=1;entryDx=0;entryDy=0;fillColor=#f8cecc;strokeColor=#00FF00;entryPerimeter=0;" parent="1" source="trFHjS8OtI2W3_3FPiBj-35" target="trFHjS8OtI2W3_3FPiBj-5" edge="1">
          <mxGeometry relative="1" as="geometry">
            <mxPoint x="-518" y="740" as="sourcePoint" />
            <mxPoint x="-363" y="680" as="targetPoint" />
          </mxGeometry>
        </mxCell>
        <mxCell id="trFHjS8OtI2W3_3FPiBj-40" value="або" style="text;html=1;strokeColor=none;fillColor=none;align=center;verticalAlign=middle;whiteSpace=wrap;rounded=0;fontSize=16;fontStyle=1" parent="1" vertex="1">
          <mxGeometry x="-920" y="3190" width="60" height="30" as="geometry" />
        </mxCell>
        <mxCell id="trFHjS8OtI2W3_3FPiBj-44" value="або" style="text;html=1;strokeColor=none;fillColor=none;align=center;verticalAlign=middle;whiteSpace=wrap;rounded=0;fontSize=16;fontStyle=1" parent="1" vertex="1">
          <mxGeometry x="-1450" y="2920" width="60" height="30" as="geometry" />
        </mxCell>
        <UserObject label="" id="trFHjS8OtI2W3_3FPiBj-45">
          <mxCell style="edgeStyle=orthogonalEdgeStyle;rounded=0;orthogonalLoop=1;jettySize=auto;html=1;elbow=vertical;entryX=0;entryY=0.5;entryDx=0;entryDy=0;targetPerimeterSpacing=50;curved=1;exitX=1;exitY=0.5;exitDx=0;exitDy=0;strokeColor=#858585;" parent="1" source="YJX4sUTcSi5cuwKjG8OX-1" target="trFHjS8OtI2W3_3FPiBj-16" edge="1">
            <mxGeometry relative="1" as="geometry">
              <mxPoint x="-603" y="1320" as="sourcePoint" />
              <mxPoint x="-633" y="765" as="targetPoint" />
            </mxGeometry>
          </mxCell>
        </UserObject>
        <mxCell id="trFHjS8OtI2W3_3FPiBj-46" value="&lt;span&gt;грамадзянін&lt;br&gt;&lt;b&gt;супраціўляецца&lt;/b&gt;&lt;/span&gt;&lt;br&gt;гэтаму ўздзеянню" style="text;html=1;strokeColor=#b85450;fillColor=#f8cecc;align=left;verticalAlign=top;whiteSpace=wrap;rounded=0;fontSize=16;fontStyle=0" parent="1" vertex="1">
          <mxGeometry x="-200" y="2320" width="160" height="120" as="geometry" />
        </mxCell>
        <mxCell id="trFHjS8OtI2W3_3FPiBj-47" value="" style="edgeStyle=orthogonalEdgeStyle;rounded=0;orthogonalLoop=1;jettySize=auto;html=1;elbow=vertical;curved=1;exitX=0.5;exitY=0;exitDx=0;exitDy=0;entryX=0.534;entryY=1;entryDx=0;entryDy=0;strokeColor=#ff0000;entryPerimeter=0;" parent="1" source="trFHjS8OtI2W3_3FPiBj-46" target="trFHjS8OtI2W3_3FPiBj-5" edge="1">
          <mxGeometry relative="1" as="geometry">
            <mxPoint x="-403" y="825" as="sourcePoint" />
            <mxPoint x="-363" y="680" as="targetPoint" />
          </mxGeometry>
        </mxCell>
        <mxCell id="trFHjS8OtI2W3_3FPiBj-18" value="" style="edgeStyle=orthogonalEdgeStyle;rounded=0;orthogonalLoop=1;jettySize=auto;html=1;elbow=vertical;curved=1;exitX=0.5;exitY=0;exitDx=0;exitDy=0;strokeColor=#858585;entryX=0.406;entryY=1;entryDx=0;entryDy=0;entryPerimeter=0;" parent="1" source="trFHjS8OtI2W3_3FPiBj-16" target="trFHjS8OtI2W3_3FPiBj-5" edge="1">
          <mxGeometry relative="1" as="geometry">
            <mxPoint x="-177" y="740" as="sourcePoint" />
            <mxPoint x="-403" y="720" as="targetPoint" />
          </mxGeometry>
        </mxCell>
        <mxCell id="trFHjS8OtI2W3_3FPiBj-48" value="" style="edgeStyle=orthogonalEdgeStyle;rounded=0;orthogonalLoop=1;jettySize=auto;html=1;elbow=vertical;curved=1;exitX=1;exitY=0.5;exitDx=0;exitDy=0;entryX=0.5;entryY=1;entryDx=0;entryDy=0;strokeColor=#ff0000;" parent="1" source="dRgE6LV4nwExN1NtKPTc-3" target="trFHjS8OtI2W3_3FPiBj-46" edge="1">
          <mxGeometry relative="1" as="geometry">
            <mxPoint x="-377" y="1881" as="sourcePoint" />
            <mxPoint x="-342" y="1602" as="targetPoint" />
          </mxGeometry>
        </mxCell>
        <mxCell id="trFHjS8OtI2W3_3FPiBj-50" value="або" style="text;html=1;strokeColor=none;fillColor=none;align=center;verticalAlign=middle;whiteSpace=wrap;rounded=0;fontSize=16;fontStyle=1" parent="1" vertex="1">
          <mxGeometry x="-920" y="3750" width="60" height="30" as="geometry" />
        </mxCell>
        <mxCell id="trFHjS8OtI2W3_3FPiBj-54" value="" style="ellipse;whiteSpace=wrap;html=1;fillColor=none;strokeColor=#BFBFBF;" parent="1" vertex="1">
          <mxGeometry x="-420" y="1240" width="120" height="80" as="geometry" />
        </mxCell>
        <mxCell id="ZGO1qrQpXi79sG8c-zsR-9" value="" style="rounded=0;orthogonalLoop=1;jettySize=auto;html=1;elbow=vertical;exitX=0.5;exitY=1;exitDx=0;exitDy=0;entryX=1;entryY=0.5;entryDx=0;entryDy=0;edgeStyle=orthogonalEdgeStyle;curved=1;dashed=1;strokeColor=#001DBC;dashPattern=12 12;" parent="1" source="trFHjS8OtI2W3_3FPiBj-28" target="ZGO1qrQpXi79sG8c-zsR-1" edge="1">
          <mxGeometry relative="1" as="geometry">
            <mxPoint x="-1265" y="2477" as="sourcePoint" />
            <mxPoint x="-1250" y="2282" as="targetPoint" />
          </mxGeometry>
        </mxCell>
        <mxCell id="1uukreD7585R6irRMM3L-1" value="Тое, як грамадства ўплывае на ўладу, складаецца з таго, як уплываюць на ўладу асобныя грамадзяне." style="text;html=1;strokeColor=default;fillColor=none;align=left;verticalAlign=top;whiteSpace=wrap;rounded=0;fontSize=16;rotation=0;" parent="1" vertex="1">
          <mxGeometry x="10" y="1320" width="320" height="90" as="geometry" />
        </mxCell>
        <mxCell id="1uukreD7585R6irRMM3L-2" value="" style="ellipse;whiteSpace=wrap;html=1;fillColor=none;strokeColor=#BFBFBF;" parent="1" vertex="1">
          <mxGeometry x="300" y="1240" width="120" height="80" as="geometry" />
        </mxCell>
        <mxCell id="1uukreD7585R6irRMM3L-4" value="" style="edgeStyle=orthogonalEdgeStyle;rounded=0;orthogonalLoop=1;jettySize=auto;html=1;elbow=vertical;curved=1;entryX=0.406;entryY=1;entryDx=0;entryDy=0;exitX=0.75;exitY=0;exitDx=0;exitDy=0;entryPerimeter=0;" parent="1" source="1uukreD7585R6irRMM3L-1" target="trFHjS8OtI2W3_3FPiBj-10" edge="1">
          <mxGeometry relative="1" as="geometry">
            <mxPoint x="-254" y="1332" as="sourcePoint" />
            <mxPoint x="-345" y="1253" as="targetPoint" />
            <Array as="points">
              <mxPoint x="257" y="1311" />
              <mxPoint x="330" y="1311" />
            </Array>
          </mxGeometry>
        </mxCell>
        <mxCell id="hciFa1by5LvJK5wFZR8x-2" value="грамадзянін&lt;b&gt; ніяк не паведамляе&lt;/b&gt;&lt;br&gt;ўладзе аб сваім патрабаванні." style="text;html=1;strokeColor=#BFBFBF;fillColor=#f5f5f5;align=left;verticalAlign=top;whiteSpace=wrap;rounded=0;fontSize=16;fontColor=#333333;" parent="1" vertex="1">
          <mxGeometry x="440" y="2320" width="160" height="120" as="geometry" />
        </mxCell>
        <mxCell id="hciFa1by5LvJK5wFZR8x-3" value="" style="rounded=0;orthogonalLoop=1;jettySize=auto;html=1;elbow=vertical;exitX=0;exitY=0.5;exitDx=0;exitDy=0;entryX=1;entryY=0.5;entryDx=0;entryDy=0;edgeStyle=orthogonalEdgeStyle;curved=1;strokeColor=#858585;" parent="1" source="hciFa1by5LvJK5wFZR8x-1" target="hciFa1by5LvJK5wFZR8x-2" edge="1">
          <mxGeometry relative="1" as="geometry">
            <mxPoint x="537" y="826" as="sourcePoint" />
            <mxPoint x="737" y="986" as="targetPoint" />
          </mxGeometry>
        </mxCell>
        <mxCell id="hciFa1by5LvJK5wFZR8x-5" value="" style="edgeStyle=orthogonalEdgeStyle;rounded=0;orthogonalLoop=1;jettySize=auto;html=1;elbow=vertical;curved=1;exitX=0.5;exitY=0;exitDx=0;exitDy=0;strokeColor=#858585;entryX=0.591;entryY=1;entryDx=0;entryDy=0;entryPerimeter=0;" parent="1" source="hciFa1by5LvJK5wFZR8x-2" target="trFHjS8OtI2W3_3FPiBj-10" edge="1">
          <mxGeometry relative="1" as="geometry">
            <mxPoint x="387" y="1481.5" as="sourcePoint" />
            <mxPoint x="407" y="1242" as="targetPoint" />
          </mxGeometry>
        </mxCell>
        <mxCell id="j5JjeeWauFz4Uhg9E__5-2" value="" style="rounded=0;orthogonalLoop=1;jettySize=auto;html=1;elbow=vertical;exitX=0;exitY=0.5;exitDx=0;exitDy=0;entryX=1;entryY=0.5;entryDx=0;entryDy=0;edgeStyle=orthogonalEdgeStyle;curved=1;strokeColor=#858585;" parent="1" source="8KlCnt_39-ksAiERNVki-2" target="hciFa1by5LvJK5wFZR8x-2" edge="1">
          <mxGeometry relative="1" as="geometry">
            <mxPoint x="747" y="896" as="sourcePoint" />
            <mxPoint x="587" y="1056" as="targetPoint" />
          </mxGeometry>
        </mxCell>
        <mxCell id="j5JjeeWauFz4Uhg9E__5-6" value="грамадзянін &lt;u&gt;спрабуе&lt;/u&gt; высветліць, наколькі важнае яго патрабаванне да ўлады для яго самога." style="text;html=1;strokeColor=#666666;fillColor=default;align=left;verticalAlign=top;whiteSpace=wrap;rounded=0;fontSize=16;fontColor=#333333;rotation=0;" parent="1" vertex="1">
          <mxGeometry x="1320" y="2800" width="200" height="120" as="geometry" />
        </mxCell>
        <mxCell id="j5JjeeWauFz4Uhg9E__5-8" value="" style="rounded=0;orthogonalLoop=1;jettySize=auto;html=1;elbow=vertical;exitX=1;exitY=0.5;exitDx=0;exitDy=0;entryX=0.5;entryY=0;entryDx=0;entryDy=0;edgeStyle=orthogonalEdgeStyle;curved=1;" parent="1" source="j5JjeeWauFz4Uhg9E__5-5" target="j5JjeeWauFz4Uhg9E__5-6" edge="1">
          <mxGeometry relative="1" as="geometry">
            <mxPoint x="1462" y="1899.5" as="sourcePoint" />
            <mxPoint x="1300" y="1969.5" as="targetPoint" />
          </mxGeometry>
        </mxCell>
        <mxCell id="j5JjeeWauFz4Uhg9E__5-13" value="" style="rounded=0;orthogonalLoop=1;jettySize=auto;html=1;elbow=vertical;exitX=0.5;exitY=1;exitDx=0;exitDy=0;entryX=0;entryY=0.5;entryDx=0;entryDy=0;edgeStyle=orthogonalEdgeStyle;curved=1;dashed=1;strokeColor=#001DBC;dashPattern=12 12;" parent="1" source="j5JjeeWauFz4Uhg9E__5-6" target="j5JjeeWauFz4Uhg9E__5-1" edge="1">
          <mxGeometry relative="1" as="geometry">
            <mxPoint x="1664" y="1996" as="sourcePoint" />
            <mxPoint x="1590" y="1681" as="targetPoint" />
          </mxGeometry>
        </mxCell>
        <mxCell id="j5JjeeWauFz4Uhg9E__5-15" value="&lt;span&gt;грамадзянін &lt;b&gt;паведамляе&lt;/b&gt;&lt;/span&gt; ўладзе &lt;b&gt;аб&lt;/b&gt; сваім &lt;b&gt;пажаданні&lt;/b&gt;" style="text;html=1;strokeColor=#82b366;fillColor=#d5e8d4;align=left;verticalAlign=top;whiteSpace=wrap;rounded=0;fontSize=16;fontStyle=0;gradientColor=none;gradientDirection=west;" parent="1" vertex="1">
          <mxGeometry x="240" y="2320" width="160" height="120" as="geometry" />
        </mxCell>
        <mxCell id="j5JjeeWauFz4Uhg9E__5-16" value="" style="edgeStyle=orthogonalEdgeStyle;rounded=0;orthogonalLoop=1;jettySize=auto;html=1;elbow=vertical;curved=1;exitX=0.5;exitY=0;exitDx=0;exitDy=0;fillColor=#f8cecc;strokeColor=#00FF00;entryX=0.531;entryY=1;entryDx=0;entryDy=0;entryPerimeter=0;" parent="1" source="j5JjeeWauFz4Uhg9E__5-15" target="trFHjS8OtI2W3_3FPiBj-10" edge="1">
          <mxGeometry relative="1" as="geometry">
            <mxPoint x="342.5" y="1388" as="sourcePoint" />
            <mxPoint x="278" y="864" as="targetPoint" />
          </mxGeometry>
        </mxCell>
        <mxCell id="j5JjeeWauFz4Uhg9E__5-18" value="" style="edgeStyle=orthogonalEdgeStyle;rounded=0;orthogonalLoop=1;jettySize=auto;html=1;elbow=vertical;curved=1;exitX=0.5;exitY=0;exitDx=0;exitDy=0;strokeColor=#ff0000;entryX=0.466;entryY=1;entryDx=0;entryDy=0;entryPerimeter=0;" parent="1" source="utNHYfiI1P-ElOVeHikR-3" target="trFHjS8OtI2W3_3FPiBj-10" edge="1">
          <mxGeometry relative="1" as="geometry">
            <mxPoint x="204" y="1694" as="sourcePoint" />
            <mxPoint x="367" y="851" as="targetPoint" />
          </mxGeometry>
        </mxCell>
        <mxCell id="utNHYfiI1P-ElOVeHikR-3" value="&lt;span&gt;грамадзянін &lt;b&gt;патрабуе&lt;/b&gt;&lt;/span&gt; ад ўлады выканання свайго патрабавання" style="text;html=1;strokeColor=#b85450;fillColor=#f8cecc;align=left;verticalAlign=top;whiteSpace=wrap;rounded=0;fontSize=16;fontStyle=0;gradientDirection=west;" parent="1" vertex="1">
          <mxGeometry x="40" y="2320" width="160" height="120" as="geometry" />
        </mxCell>
        <mxCell id="utNHYfiI1P-ElOVeHikR-4" value="" style="edgeStyle=orthogonalEdgeStyle;rounded=0;orthogonalLoop=1;jettySize=auto;html=1;elbow=vertical;curved=1;exitX=0;exitY=0.5;exitDx=0;exitDy=0;entryX=0.5;entryY=1;entryDx=0;entryDy=0;strokeColor=#ff0000;" parent="1" source="u8j-KaxE-SIpMTuqpm7c-20" target="utNHYfiI1P-ElOVeHikR-3" edge="1">
          <mxGeometry relative="1" as="geometry">
            <mxPoint x="72" y="1810.5" as="sourcePoint" />
            <mxPoint x="342" y="1763.5" as="targetPoint" />
          </mxGeometry>
        </mxCell>
        <mxCell id="utNHYfiI1P-ElOVeHikR-5" value="" style="rounded=0;orthogonalLoop=1;jettySize=auto;html=1;elbow=vertical;exitX=0;exitY=0.5;exitDx=0;exitDy=0;entryX=1;entryY=0.5;entryDx=0;entryDy=0;edgeStyle=orthogonalEdgeStyle;curved=1;strokeColor=#858585;" parent="1" source="u8j-KaxE-SIpMTuqpm7c-14" target="hciFa1by5LvJK5wFZR8x-2" edge="1">
          <mxGeometry relative="1" as="geometry">
            <mxPoint x="907" y="1301" as="sourcePoint" />
            <mxPoint x="587" y="1056" as="targetPoint" />
          </mxGeometry>
        </mxCell>
        <mxCell id="utNHYfiI1P-ElOVeHikR-6" value="" style="rounded=0;orthogonalLoop=1;jettySize=auto;html=1;elbow=vertical;exitX=0;exitY=0.5;exitDx=0;exitDy=0;entryX=1;entryY=0.5;entryDx=0;entryDy=0;edgeStyle=orthogonalEdgeStyle;curved=1;strokeColor=#858585;" parent="1" source="utNHYfiI1P-ElOVeHikR-1" target="hciFa1by5LvJK5wFZR8x-2" edge="1">
          <mxGeometry relative="1" as="geometry">
            <mxPoint x="747" y="1778" as="sourcePoint" />
            <mxPoint x="587" y="1056" as="targetPoint" />
          </mxGeometry>
        </mxCell>
        <mxCell id="utNHYfiI1P-ElOVeHikR-7" value="" style="rounded=0;orthogonalLoop=1;jettySize=auto;html=1;elbow=vertical;exitX=0.5;exitY=1;exitDx=0;exitDy=0;entryX=1;entryY=0.5;entryDx=0;entryDy=0;edgeStyle=orthogonalEdgeStyle;curved=1;dashed=1;strokeColor=#001DBC;dashPattern=12 12;" parent="1" source="j5JjeeWauFz4Uhg9E__5-6" target="utNHYfiI1P-ElOVeHikR-1" edge="1">
          <mxGeometry relative="1" as="geometry">
            <mxPoint x="1141" y="1451" as="sourcePoint" />
            <mxPoint x="1067" y="1256" as="targetPoint" />
          </mxGeometry>
        </mxCell>
        <mxCell id="utNHYfiI1P-ElOVeHikR-8" value="" style="rounded=0;orthogonalLoop=1;jettySize=auto;html=1;elbow=vertical;exitX=0.5;exitY=1;exitDx=0;exitDy=0;entryX=1;entryY=0.5;entryDx=0;entryDy=0;edgeStyle=orthogonalEdgeStyle;curved=1;dashed=1;strokeColor=#001DBC;dashPattern=12 12;" parent="1" source="j5JjeeWauFz4Uhg9E__5-6" target="utNHYfiI1P-ElOVeHikR-2" edge="1">
          <mxGeometry relative="1" as="geometry">
            <mxPoint x="1174" y="1582.5" as="sourcePoint" />
            <mxPoint x="1100" y="1787.5" as="targetPoint" />
          </mxGeometry>
        </mxCell>
        <mxCell id="utNHYfiI1P-ElOVeHikR-9" value="або" style="text;html=1;strokeColor=none;fillColor=none;align=center;verticalAlign=middle;whiteSpace=wrap;rounded=0;fontSize=16;fontStyle=1" parent="1" vertex="1">
          <mxGeometry x="860" y="3750" width="60" height="30" as="geometry" />
        </mxCell>
        <mxCell id="utNHYfiI1P-ElOVeHikR-11" value="" style="edgeStyle=orthogonalEdgeStyle;rounded=0;orthogonalLoop=1;jettySize=auto;html=1;elbow=vertical;curved=1;exitX=0;exitY=0.5;exitDx=0;exitDy=0;entryX=0.5;entryY=1;entryDx=0;entryDy=0;fillColor=#d5e8d4;strokeColor=#00ff00;" parent="1" source="utNHYfiI1P-ElOVeHikR-1" target="j5JjeeWauFz4Uhg9E__5-15" edge="1">
          <mxGeometry relative="1" as="geometry">
            <mxPoint x="-49.5" y="1678" as="sourcePoint" />
            <mxPoint x="220.5" y="1441" as="targetPoint" />
          </mxGeometry>
        </mxCell>
        <mxCell id="utNHYfiI1P-ElOVeHikR-10" value="або" style="text;html=1;strokeColor=none;fillColor=none;align=center;verticalAlign=middle;whiteSpace=wrap;rounded=0;fontSize=16;fontStyle=1" parent="1" vertex="1">
          <mxGeometry x="860" y="3190" width="60" height="30" as="geometry" />
        </mxCell>
        <mxCell id="u4h5CCwdaAVt-h-GZreR-4" value="" style="rounded=0;orthogonalLoop=1;jettySize=auto;html=1;elbow=vertical;exitX=0.5;exitY=1;exitDx=0;exitDy=0;entryX=1;entryY=0.5;entryDx=0;entryDy=0;edgeStyle=orthogonalEdgeStyle;curved=1;dashed=1;strokeColor=#001DBC;dashPattern=12 12;" parent="1" source="j5JjeeWauFz4Uhg9E__5-6" target="u4h5CCwdaAVt-h-GZreR-3" edge="1">
          <mxGeometry relative="1" as="geometry">
            <mxPoint x="1141" y="1451" as="sourcePoint" />
            <mxPoint x="1067" y="1656" as="targetPoint" />
          </mxGeometry>
        </mxCell>
        <mxCell id="j5JjeeWauFz4Uhg9E__5-14" value="або" style="text;html=1;strokeColor=none;fillColor=none;align=center;verticalAlign=middle;whiteSpace=wrap;rounded=0;fontSize=16;fontStyle=1" parent="1" vertex="1">
          <mxGeometry x="1390" y="2930" width="60" height="30" as="geometry" />
        </mxCell>
        <mxCell id="u4h5CCwdaAVt-h-GZreR-5" value="" style="rounded=0;orthogonalLoop=1;jettySize=auto;html=1;elbow=vertical;exitX=0;exitY=0.5;exitDx=0;exitDy=0;entryX=1;entryY=0.5;entryDx=0;entryDy=0;edgeStyle=orthogonalEdgeStyle;curved=1;strokeColor=#858585;" parent="1" source="u4h5CCwdaAVt-h-GZreR-3" target="hciFa1by5LvJK5wFZR8x-2" edge="1">
          <mxGeometry relative="1" as="geometry">
            <mxPoint x="747" y="1656" as="sourcePoint" />
            <mxPoint x="587" y="1056" as="targetPoint" />
          </mxGeometry>
        </mxCell>
        <mxCell id="M5mpbalIPrIZrsdFD9r1-6" value="" style="rounded=0;orthogonalLoop=1;jettySize=auto;html=1;elbow=vertical;entryX=0.5;entryY=0;entryDx=0;entryDy=0;edgeStyle=orthogonalEdgeStyle;curved=1;exitX=0;exitY=0.25;exitDx=0;exitDy=0;" parent="1" source="trFHjS8OtI2W3_3FPiBj-5" target="M5mpbalIPrIZrsdFD9r1-3" edge="1">
          <mxGeometry relative="1" as="geometry">
            <mxPoint x="-620" y="630" as="sourcePoint" />
            <mxPoint x="-1540" y="510" as="targetPoint" />
            <Array as="points">
              <mxPoint x="-520" y="440" />
              <mxPoint x="-3080" y="440" />
            </Array>
          </mxGeometry>
        </mxCell>
        <mxCell id="M5mpbalIPrIZrsdFD9r1-7" value="" style="rounded=0;orthogonalLoop=1;jettySize=auto;html=1;elbow=vertical;exitX=0.5;exitY=1;exitDx=0;exitDy=0;entryX=0;entryY=0.5;entryDx=0;entryDy=0;edgeStyle=orthogonalEdgeStyle;curved=1;" parent="1" source="M5mpbalIPrIZrsdFD9r1-3" target="o80giRriBsHeoGOEMKfS-1" edge="1">
          <mxGeometry relative="1" as="geometry">
            <mxPoint x="-1871" y="830" as="sourcePoint" />
            <mxPoint x="-1343.92" y="680" as="targetPoint" />
          </mxGeometry>
        </mxCell>
        <mxCell id="_Y3YXtQRD3ggY6TkbZ7i-2" value="" style="rounded=0;orthogonalLoop=1;jettySize=auto;html=1;elbow=vertical;exitX=1;exitY=0.25;exitDx=0;exitDy=0;entryX=0.5;entryY=0;entryDx=0;entryDy=0;edgeStyle=orthogonalEdgeStyle;curved=1;" parent="1" source="trFHjS8OtI2W3_3FPiBj-10" target="_Y3YXtQRD3ggY6TkbZ7i-1" edge="1">
          <mxGeometry relative="1" as="geometry">
            <mxPoint x="-1846.5" y="970" as="sourcePoint" />
            <mxPoint x="-1670.5" y="850" as="targetPoint" />
            <Array as="points">
              <mxPoint x="540" y="1150" />
              <mxPoint x="540" y="360" />
              <mxPoint x="-3480" y="360" />
            </Array>
          </mxGeometry>
        </mxCell>
        <mxCell id="_Y3YXtQRD3ggY6TkbZ7i-3" value="" style="rounded=0;orthogonalLoop=1;jettySize=auto;html=1;elbow=vertical;exitX=0.5;exitY=1;exitDx=0;exitDy=0;entryX=0;entryY=0.5;entryDx=0;entryDy=0;edgeStyle=orthogonalEdgeStyle;curved=1;" parent="1" source="_Y3YXtQRD3ggY6TkbZ7i-1" target="o80giRriBsHeoGOEMKfS-1" edge="1">
          <mxGeometry relative="1" as="geometry">
            <mxPoint x="-1510" y="810" as="sourcePoint" />
            <mxPoint x="-1343.92" y="680" as="targetPoint" />
          </mxGeometry>
        </mxCell>
        <mxCell id="oJMkLnUFn6p0UKAqhTH_-1" value="&lt;div&gt;Ніхто ніколі не казаў яму, што &quot;так было можна&quot;. А сам ён ніколі такога не назіраў. Так званая &quot;сляпая пляма&quot;.&lt;br&gt;&lt;br&gt;Веды аб &quot;уладкаванні свету&quot; грамадзянін атрымвае ад свайго сацыяльнага асяроддзя — бацькоў, настаўнікаў, сяброў, калег і іншых людзей навокал. А таксама з уласнага досведу і праз самаадукацыю.&lt;/div&gt;&lt;div&gt;&lt;br&gt;&lt;/div&gt;&lt;div&gt;Гэта азначае, што ўсе людзі з асяроддзя або не ведаюць самі, або ўсе, хто ведаў, не падзяліліся ведамі.&lt;br&gt;&lt;/div&gt;" style="text;html=1;align=left;verticalAlign=middle;whiteSpace=wrap;rounded=1;fontSize=16;strokeColor=default;fontStyle=0;glass=0;shadow=0;dashed=1;rotation=0;" parent="1" vertex="1">
          <mxGeometry x="-2481" y="760" width="400" height="280" as="geometry" />
        </mxCell>
        <mxCell id="oJMkLnUFn6p0UKAqhTH_-2" value="" style="endArrow=none;dashed=1;html=1;dashPattern=1 3;strokeWidth=2;rounded=0;exitX=0;exitY=0.5;exitDx=0;exitDy=0;entryX=1;entryY=0.5;entryDx=0;entryDy=0;" parent="1" source="TJLECN_oBxhWEtQTq3mC-1" target="oJMkLnUFn6p0UKAqhTH_-1" edge="1">
          <mxGeometry width="50" height="50" relative="1" as="geometry">
            <mxPoint x="-2560" y="1200" as="sourcePoint" />
            <mxPoint x="-2470" y="950" as="targetPoint" />
          </mxGeometry>
        </mxCell>
        <mxCell id="oJMkLnUFn6p0UKAqhTH_-3" value="" style="rounded=0;orthogonalLoop=1;jettySize=auto;html=1;elbow=vertical;exitX=1;exitY=0.5;exitDx=0;exitDy=0;entryX=0;entryY=0.5;entryDx=0;entryDy=0;edgeStyle=orthogonalEdgeStyle;curved=1;" parent="1" source="TJLECN_oBxhWEtQTq3mC-1" target="trFHjS8OtI2W3_3FPiBj-24" edge="1">
          <mxGeometry relative="1" as="geometry">
            <mxPoint x="-1510" y="1050" as="sourcePoint" />
            <mxPoint x="-1343.92" y="680" as="targetPoint" />
          </mxGeometry>
        </mxCell>
        <mxCell id="KJX486Q6F6tdALyQwLRX-2" value="&lt;div&gt;Інструменты існуюць. Грамадзянін ведае, што яны існуюць. Але:&lt;br&gt;або не можа навучыцца імі карыстацца (нейкае абмежаванне. Напрыклад: не ўмее чытаць, не мае патрэбных тэхнічных сродкаў, не мае энергіі, не мае часу, рукі звязаны...)&lt;br&gt;або не жадае навучыцца імі карыстацца.&lt;br&gt;&lt;/div&gt;" style="text;html=1;align=left;verticalAlign=middle;whiteSpace=wrap;rounded=1;fontSize=16;strokeColor=default;fontStyle=0;glass=0;shadow=0;dashed=1;rotation=0;" parent="1" vertex="1">
          <mxGeometry x="-2481" y="1080" width="400" height="160" as="geometry" />
        </mxCell>
        <mxCell id="pGRtY3SlF3WEf-V-RUAK-1" value="" style="endArrow=none;dashed=1;html=1;dashPattern=1 3;strokeWidth=2;rounded=0;exitX=0;exitY=0.5;exitDx=0;exitDy=0;entryX=1;entryY=0.5;entryDx=0;entryDy=0;" parent="1" source="KJX486Q6F6tdALyQwLRX-1" target="KJX486Q6F6tdALyQwLRX-2" edge="1">
          <mxGeometry width="50" height="50" relative="1" as="geometry">
            <mxPoint x="-1990" y="1250" as="sourcePoint" />
            <mxPoint x="-2070" y="1230" as="targetPoint" />
          </mxGeometry>
        </mxCell>
        <mxCell id="pGRtY3SlF3WEf-V-RUAK-2" value="" style="rounded=0;orthogonalLoop=1;jettySize=auto;html=1;elbow=vertical;exitX=1;exitY=0.5;exitDx=0;exitDy=0;entryX=0;entryY=0.5;entryDx=0;entryDy=0;edgeStyle=orthogonalEdgeStyle;curved=1;" parent="1" source="KJX486Q6F6tdALyQwLRX-1" target="trFHjS8OtI2W3_3FPiBj-24" edge="1">
          <mxGeometry relative="1" as="geometry">
            <mxPoint x="-1480" y="1300" as="sourcePoint" />
            <mxPoint x="-1343.92" y="680" as="targetPoint" />
          </mxGeometry>
        </mxCell>
        <mxCell id="o80giRriBsHeoGOEMKfS-4" value="" style="rounded=0;orthogonalLoop=1;jettySize=auto;html=1;elbow=vertical;exitX=1;exitY=0.5;exitDx=0;exitDy=0;entryX=0;entryY=0.5;entryDx=0;entryDy=0;edgeStyle=orthogonalEdgeStyle;curved=1;" parent="1" source="o80giRriBsHeoGOEMKfS-1" target="trFHjS8OtI2W3_3FPiBj-24" edge="1">
          <mxGeometry relative="1" as="geometry">
            <mxPoint x="-1510" y="1370" as="sourcePoint" />
            <mxPoint x="-1343.92" y="680" as="targetPoint" />
          </mxGeometry>
        </mxCell>
        <mxCell id="H2adwTTagYGTjLZC20fY-2" value="&lt;div&gt;Усё ёсць, але жадання няма. Грамадзянін лічыць няважнай для сябе інфармацыю пра ўздзеянне ўлады на грамадства. Або яму гэтая тэма проста не цікава.&lt;br&gt;&lt;/div&gt;" style="text;html=1;align=left;verticalAlign=middle;whiteSpace=wrap;rounded=1;fontSize=16;strokeColor=default;fontStyle=0;glass=0;shadow=0;dashed=1;rotation=0;" parent="1" vertex="1">
          <mxGeometry x="-2480" y="1440" width="400" height="120" as="geometry" />
        </mxCell>
        <mxCell id="H2adwTTagYGTjLZC20fY-3" value="" style="endArrow=none;dashed=1;html=1;dashPattern=1 3;strokeWidth=2;rounded=0;exitX=0;exitY=0.5;exitDx=0;exitDy=0;entryX=1;entryY=0.5;entryDx=0;entryDy=0;" parent="1" source="H2adwTTagYGTjLZC20fY-1" target="H2adwTTagYGTjLZC20fY-2" edge="1">
          <mxGeometry width="50" height="50" relative="1" as="geometry">
            <mxPoint x="-1990" y="1571" as="sourcePoint" />
            <mxPoint x="-2070" y="1590" as="targetPoint" />
          </mxGeometry>
        </mxCell>
        <mxCell id="H2adwTTagYGTjLZC20fY-4" value="" style="rounded=0;orthogonalLoop=1;jettySize=auto;html=1;elbow=vertical;exitX=1;exitY=0.5;exitDx=0;exitDy=0;entryX=0;entryY=0.5;entryDx=0;entryDy=0;edgeStyle=orthogonalEdgeStyle;curved=1;" parent="1" source="H2adwTTagYGTjLZC20fY-1" target="trFHjS8OtI2W3_3FPiBj-24" edge="1">
          <mxGeometry relative="1" as="geometry">
            <mxPoint x="-1510" y="1571" as="sourcePoint" />
            <mxPoint x="-1343.92" y="680" as="targetPoint" />
          </mxGeometry>
        </mxCell>
        <mxCell id="RNDRSYDRFuZBWHNrruaz-5" value="Чалавек не лічыць сябе важным чалавекам у сваім жыцці." style="text;html=1;align=left;verticalAlign=top;whiteSpace=wrap;rounded=0;fontSize=16;strokeColor=default;rotation=0;" parent="1" vertex="1">
          <mxGeometry x="-3000" y="3160" width="320" height="80" as="geometry" />
        </mxCell>
        <mxCell id="RNDRSYDRFuZBWHNrruaz-6" value="" style="endArrow=classic;html=1;rounded=0;entryX=0;entryY=0.5;entryDx=0;entryDy=0;edgeStyle=orthogonalEdgeStyle;curved=1;exitX=1;exitY=0.5;exitDx=0;exitDy=0;" parent="1" source="RNDRSYDRFuZBWHNrruaz-5" target="RNDRSYDRFuZBWHNrruaz-4" edge="1">
          <mxGeometry width="50" height="50" relative="1" as="geometry">
            <mxPoint x="-1600" y="2300" as="sourcePoint" />
            <mxPoint x="-1550" y="2250" as="targetPoint" />
          </mxGeometry>
        </mxCell>
        <mxCell id="RNDRSYDRFuZBWHNrruaz-7" value="" style="rounded=0;orthogonalLoop=1;jettySize=auto;html=1;elbow=vertical;exitX=1;exitY=0.5;exitDx=0;exitDy=0;entryX=0;entryY=0.5;entryDx=0;entryDy=0;edgeStyle=orthogonalEdgeStyle;curved=1;" parent="1" source="RNDRSYDRFuZBWHNrruaz-3" target="u8j-KaxE-SIpMTuqpm7c-23" edge="1">
          <mxGeometry relative="1" as="geometry">
            <mxPoint x="-1570" y="1877" as="sourcePoint" />
            <mxPoint x="-1290" y="1480" as="targetPoint" />
          </mxGeometry>
        </mxCell>
        <mxCell id="RNDRSYDRFuZBWHNrruaz-8" value="" style="rounded=0;orthogonalLoop=1;jettySize=auto;html=1;elbow=vertical;exitX=1;exitY=0.5;exitDx=0;exitDy=0;entryX=0;entryY=0.5;entryDx=0;entryDy=0;edgeStyle=orthogonalEdgeStyle;curved=1;" parent="1" source="RNDRSYDRFuZBWHNrruaz-4" target="u8j-KaxE-SIpMTuqpm7c-23" edge="1">
          <mxGeometry relative="1" as="geometry">
            <mxPoint x="-1510" y="2030" as="sourcePoint" />
            <mxPoint x="-1240" y="2073" as="targetPoint" />
          </mxGeometry>
        </mxCell>
        <mxCell id="JhPQRlO-KKgyaNoFn7eW-10" value="" style="rounded=0;orthogonalLoop=1;jettySize=auto;html=1;elbow=vertical;exitX=1;exitY=0.5;exitDx=0;exitDy=0;entryX=0;entryY=0.5;entryDx=0;entryDy=0;edgeStyle=orthogonalEdgeStyle;curved=1;" parent="1" source="JhPQRlO-KKgyaNoFn7eW-9" target="u8j-KaxE-SIpMTuqpm7c-23" edge="1">
          <mxGeometry relative="1" as="geometry">
            <mxPoint x="-1510" y="1990" as="sourcePoint" />
            <mxPoint x="-1230" y="2073" as="targetPoint" />
          </mxGeometry>
        </mxCell>
        <mxCell id="JhPQRlO-KKgyaNoFn7eW-12" value="" style="rounded=0;orthogonalLoop=1;jettySize=auto;html=1;elbow=vertical;exitX=1;exitY=0.5;exitDx=0;exitDy=0;entryX=0;entryY=0.5;entryDx=0;entryDy=0;edgeStyle=orthogonalEdgeStyle;curved=1;" parent="1" source="JhPQRlO-KKgyaNoFn7eW-11" target="u8j-KaxE-SIpMTuqpm7c-23" edge="1">
          <mxGeometry relative="1" as="geometry">
            <mxPoint x="-1510" y="2490" as="sourcePoint" />
            <mxPoint x="-1230" y="2273" as="targetPoint" />
          </mxGeometry>
        </mxCell>
        <mxCell id="trFHjS8OtI2W3_3FPiBj-27" value="" style="rounded=0;orthogonalLoop=1;jettySize=auto;html=1;elbow=vertical;exitX=1;exitY=0.5;exitDx=0;exitDy=0;edgeStyle=orthogonalEdgeStyle;curved=1;strokeColor=#858585;entryX=0;entryY=0.5;entryDx=0;entryDy=0;" parent="1" source="JhPQRlO-KKgyaNoFn7eW-13" target="trFHjS8OtI2W3_3FPiBj-16" edge="1">
          <mxGeometry relative="1" as="geometry">
            <mxPoint x="-753" y="945" as="sourcePoint" />
            <mxPoint x="-583" y="670" as="targetPoint" />
          </mxGeometry>
        </mxCell>
        <mxCell id="sWhszSgmb0RcljNFikNW-2" value="" style="rounded=0;orthogonalLoop=1;jettySize=auto;html=1;elbow=vertical;exitX=1;exitY=0.5;exitDx=0;exitDy=0;entryX=0;entryY=0.5;entryDx=0;entryDy=0;edgeStyle=orthogonalEdgeStyle;curved=1;" parent="1" source="sWhszSgmb0RcljNFikNW-1" target="JhPQRlO-KKgyaNoFn7eW-13" edge="1">
          <mxGeometry relative="1" as="geometry">
            <mxPoint x="-1510" y="1612" as="sourcePoint" />
            <mxPoint x="-1229" y="1215" as="targetPoint" />
          </mxGeometry>
        </mxCell>
        <mxCell id="Z-fySZ9CyFiNbup-F0ZK-4" value="" style="rounded=0;orthogonalLoop=1;jettySize=auto;html=1;elbow=vertical;exitX=1;exitY=0.5;exitDx=0;exitDy=0;entryX=0;entryY=0.5;entryDx=0;entryDy=0;edgeStyle=orthogonalEdgeStyle;curved=1;" parent="1" source="Z-fySZ9CyFiNbup-F0ZK-1" target="JhPQRlO-KKgyaNoFn7eW-13" edge="1">
          <mxGeometry relative="1" as="geometry">
            <mxPoint x="-1510" y="2010" as="sourcePoint" />
            <mxPoint x="-1350" y="1775" as="targetPoint" />
          </mxGeometry>
        </mxCell>
        <mxCell id="Z-fySZ9CyFiNbup-F0ZK-5" value="" style="rounded=0;orthogonalLoop=1;jettySize=auto;html=1;elbow=vertical;exitX=1;exitY=0.5;exitDx=0;exitDy=0;entryX=0;entryY=0.5;entryDx=0;entryDy=0;edgeStyle=orthogonalEdgeStyle;curved=1;" parent="1" source="Z-fySZ9CyFiNbup-F0ZK-2" target="JhPQRlO-KKgyaNoFn7eW-13" edge="1">
          <mxGeometry relative="1" as="geometry">
            <mxPoint x="-1510" y="2150" as="sourcePoint" />
            <mxPoint x="-1350" y="1775" as="targetPoint" />
          </mxGeometry>
        </mxCell>
        <mxCell id="Z-fySZ9CyFiNbup-F0ZK-6" value="" style="rounded=0;orthogonalLoop=1;jettySize=auto;html=1;elbow=vertical;entryX=0;entryY=0.5;entryDx=0;entryDy=0;edgeStyle=orthogonalEdgeStyle;curved=1;exitX=1;exitY=0.25;exitDx=0;exitDy=0;" parent="1" source="ZGO1qrQpXi79sG8c-zsR-1" target="JhPQRlO-KKgyaNoFn7eW-13" edge="1">
          <mxGeometry relative="1" as="geometry">
            <mxPoint x="-1610" y="2410" as="sourcePoint" />
            <mxPoint x="-1350" y="1775" as="targetPoint" />
          </mxGeometry>
        </mxCell>
        <mxCell id="PuyFMVJUlaGO4NqQOxUn-1" value="У гэтым слупку ўсе (&lt;font color=&quot;#ff0000&quot;&gt;? усе ?&lt;/font&gt;) магчымыя прычыны чаму грамадзянін можа лічыць, што ён нічога не можа зрабіць у дадзеным выпадку." style="swimlane;whiteSpace=wrap;html=1;fontSize=14;verticalAlign=top;fillColor=#E6E6E6;strokeColor=#B3B3B3;fontStyle=0;rounded=1;fillStyle=dashed;glass=0;shadow=0;swimlaneFillColor=#E6E6E6;spacing=2;swimlaneLine=0;" parent="1" vertex="1">
          <mxGeometry x="-3720" y="1840" width="400" height="360" as="geometry" />
        </mxCell>
        <mxCell id="22lI2lt3FdTWuDDGKJeW-1" value="Грамадзянін мае нейкае абмежаванне і не ведае, як ад яго пазбавіцца. Напрыклад: не мае патрэбных тэхнічных сродкаў, не мае энергіі, не мае часу, рукі звязаны..." style="text;html=1;align=left;verticalAlign=top;whiteSpace=wrap;rounded=0;fontSize=16;strokeColor=default;rotation=0;fillColor=default;" parent="PuyFMVJUlaGO4NqQOxUn-1" vertex="1">
          <mxGeometry x="40" y="80" width="320" height="120" as="geometry" />
        </mxCell>
        <mxCell id="RKpNLnjRRikUdjr9KZIu-1" value="&quot;Ментальны блок&quot; &quot;я ведаю, што нічога не змагу змяніць&quot;. &quot;Вывучаная бездапаможнасць&quot;." style="text;html=1;align=left;verticalAlign=top;whiteSpace=wrap;rounded=0;fontSize=16;strokeColor=default;rotation=0;fillColor=default;" parent="PuyFMVJUlaGO4NqQOxUn-1" vertex="1">
          <mxGeometry x="40" y="240" width="320" height="80" as="geometry" />
        </mxCell>
        <mxCell id="giLwI4b5n_qfCpBWF8nA-1" value="&lt;div&gt;Сітуацыя, калі грамадзянін лічыць, што дадзенае асобнае ўздзеянне ўлады на грамадства ніяк не ўплывае на яго асабістыя інтарэсы, мне здаецца, з&#39;яўляецца памылкай гэтага грамадзяніна. Магчыма, прыняты закон не ўплывае непасрэдна на грамадзяніна. Але калі закон уплывае хаця б на некага ў краіне, то гэта азначае, што на грамадзяніна паўплываюць эфекты другога, трэцяга або наступных парадкаў.&lt;br&gt;&lt;/div&gt;" style="text;html=1;align=left;verticalAlign=middle;whiteSpace=wrap;rounded=1;fontSize=16;strokeColor=default;fontStyle=0;glass=0;shadow=0;dashed=1;rotation=0;" parent="1" vertex="1">
          <mxGeometry x="-2040" y="3040" width="440" height="240" as="geometry" />
        </mxCell>
        <mxCell id="giLwI4b5n_qfCpBWF8nA-2" value="" style="endArrow=none;dashed=1;html=1;dashPattern=1 3;strokeWidth=2;rounded=0;exitX=0;exitY=0.75;exitDx=0;exitDy=0;entryX=1;entryY=0.5;entryDx=0;entryDy=0;" parent="1" source="trFHjS8OtI2W3_3FPiBj-19" target="giLwI4b5n_qfCpBWF8nA-1" edge="1">
          <mxGeometry width="50" height="50" relative="1" as="geometry">
            <mxPoint x="-1320" y="3563" as="sourcePoint" />
            <mxPoint x="-1390" y="3551" as="targetPoint" />
          </mxGeometry>
        </mxCell>
        <mxCell id="YJX4sUTcSi5cuwKjG8OX-1" value="грамадзянін &lt;u&gt;не&lt;/u&gt; бароніць свае ўласныя межы" style="text;html=1;align=left;verticalAlign=top;whiteSpace=wrap;rounded=0;fontSize=16;rotation=0;fillColor=#f5f5f5;strokeColor=#BFBFBF;fontColor=#333333;" parent="1" vertex="1">
          <mxGeometry x="-840" y="3360" width="160" height="120" as="geometry" />
        </mxCell>
        <mxCell id="YJX4sUTcSi5cuwKjG8OX-2" value="" style="rounded=0;orthogonalLoop=1;jettySize=auto;html=1;elbow=vertical;exitX=1;exitY=0.5;exitDx=0;exitDy=0;entryX=0.5;entryY=1;entryDx=0;entryDy=0;edgeStyle=orthogonalEdgeStyle;curved=1;" parent="1" source="trFHjS8OtI2W3_3FPiBj-41" target="YJX4sUTcSi5cuwKjG8OX-1" edge="1">
          <mxGeometry relative="1" as="geometry">
            <mxPoint x="-732" y="4305" as="sourcePoint" />
            <mxPoint x="-922" y="4080" as="targetPoint" />
          </mxGeometry>
        </mxCell>
        <mxCell id="frgXua91Wq7E8KbrAR8E-1" value="У гэтым слупку ўсе (&lt;font color=&quot;#ff0000&quot;&gt;? усе ?&lt;/font&gt;) магчымыя прычыны чаму грамадзянін не бароніць свае ўласныя межы." style="swimlane;whiteSpace=wrap;html=1;fontSize=14;verticalAlign=top;fillColor=#E6E6E6;strokeColor=#B3B3B3;fontStyle=0;rounded=1;fillStyle=zigzag-line;glass=0;shadow=0;swimlaneFillColor=#E6E6E6;spacing=2;swimlaneLine=0;" parent="1" vertex="1">
          <mxGeometry x="-2600" y="3280" width="400" height="560" as="geometry" />
        </mxCell>
        <mxCell id="1UCaaAMTz-ETulmOOAEi-1" value="Грамадзянін наогул не ведае, што можна бараніць свае ўласныя межы." style="text;html=1;align=left;verticalAlign=top;whiteSpace=wrap;rounded=0;fontSize=16;strokeColor=default;rotation=0;fillColor=default;" parent="frgXua91Wq7E8KbrAR8E-1" vertex="1">
          <mxGeometry x="40" y="80" width="320" height="80" as="geometry" />
        </mxCell>
        <mxCell id="1UCaaAMTz-ETulmOOAEi-2" value="Грамадзянін не ўмее бараніць свае ўласныя межы." style="text;html=1;align=left;verticalAlign=top;whiteSpace=wrap;rounded=0;fontSize=16;strokeColor=default;rotation=0;fillColor=default;" parent="frgXua91Wq7E8KbrAR8E-1" vertex="1">
          <mxGeometry x="40" y="200" width="320" height="80" as="geometry" />
        </mxCell>
        <mxCell id="1UCaaAMTz-ETulmOOAEi-3" value="Грамадзянін не можа бараніць свае ўласныя межы." style="text;html=1;align=left;verticalAlign=top;whiteSpace=wrap;rounded=0;fontSize=16;strokeColor=default;rotation=0;fillColor=default;" parent="frgXua91Wq7E8KbrAR8E-1" vertex="1">
          <mxGeometry x="40" y="320" width="320" height="80" as="geometry" />
        </mxCell>
        <UserObject label="Грамадзянін не жадае бараніць свае ўласныя межы." id="1UCaaAMTz-ETulmOOAEi-4">
          <mxCell style="text;html=1;align=left;verticalAlign=top;whiteSpace=wrap;rounded=0;fontSize=16;strokeColor=default;rotation=0;fillColor=default;" parent="frgXua91Wq7E8KbrAR8E-1" vertex="1">
            <mxGeometry x="40" y="440" width="320" height="80" as="geometry" />
          </mxCell>
        </UserObject>
        <mxCell id="1UCaaAMTz-ETulmOOAEi-6" value="" style="endArrow=classic;html=1;rounded=0;entryX=0;entryY=0.5;entryDx=0;entryDy=0;exitX=1;exitY=0.5;exitDx=0;exitDy=0;edgeStyle=orthogonalEdgeStyle;curved=1;" parent="1" source="RNDRSYDRFuZBWHNrruaz-5" target="1UCaaAMTz-ETulmOOAEi-1" edge="1">
          <mxGeometry width="50" height="50" relative="1" as="geometry">
            <mxPoint x="-1760" y="3840" as="sourcePoint" />
            <mxPoint x="-1960" y="3760" as="targetPoint" />
          </mxGeometry>
        </mxCell>
        <mxCell id="1UCaaAMTz-ETulmOOAEi-7" value="3" style="ellipse;whiteSpace=wrap;html=1;aspect=fixed;fontColor=#0000CC;strokeColor=#0000CC;fontStyle=1;fontSize=18;" parent="1" vertex="1">
          <mxGeometry x="-2135" y="3565" width="30" height="30" as="geometry" />
        </mxCell>
        <mxCell id="1UCaaAMTz-ETulmOOAEi-8" value="" style="rounded=0;orthogonalLoop=1;jettySize=auto;html=1;elbow=vertical;exitX=1;exitY=0.5;exitDx=0;exitDy=0;entryX=0.5;entryY=1;entryDx=0;entryDy=0;edgeStyle=orthogonalEdgeStyle;curved=1;" parent="1" source="1UCaaAMTz-ETulmOOAEi-7" target="YJX4sUTcSi5cuwKjG8OX-1" edge="1">
          <mxGeometry relative="1" as="geometry">
            <mxPoint x="-912" y="4335" as="sourcePoint" />
            <mxPoint x="-922" y="4080" as="targetPoint" />
          </mxGeometry>
        </mxCell>
        <mxCell id="1UCaaAMTz-ETulmOOAEi-9" value="" style="rounded=0;orthogonalLoop=1;jettySize=auto;html=1;elbow=vertical;exitX=1;exitY=0.5;exitDx=0;exitDy=0;entryX=0;entryY=0.5;entryDx=0;entryDy=0;edgeStyle=orthogonalEdgeStyle;curved=1;" parent="1" source="1UCaaAMTz-ETulmOOAEi-4" target="1UCaaAMTz-ETulmOOAEi-7" edge="1">
          <mxGeometry relative="1" as="geometry">
            <mxPoint x="-1310" y="4090" as="sourcePoint" />
            <mxPoint x="-990" y="4095" as="targetPoint" />
          </mxGeometry>
        </mxCell>
        <mxCell id="1UCaaAMTz-ETulmOOAEi-10" value="" style="rounded=0;orthogonalLoop=1;jettySize=auto;html=1;elbow=vertical;exitX=1;exitY=0.5;exitDx=0;exitDy=0;entryX=0;entryY=0.5;entryDx=0;entryDy=0;edgeStyle=orthogonalEdgeStyle;curved=1;" parent="1" source="1UCaaAMTz-ETulmOOAEi-3" target="1UCaaAMTz-ETulmOOAEi-7" edge="1">
          <mxGeometry relative="1" as="geometry">
            <mxPoint x="-1510" y="4330" as="sourcePoint" />
            <mxPoint x="-1330" y="4090" as="targetPoint" />
          </mxGeometry>
        </mxCell>
        <mxCell id="1UCaaAMTz-ETulmOOAEi-11" value="" style="rounded=0;orthogonalLoop=1;jettySize=auto;html=1;elbow=vertical;exitX=1;exitY=0.5;exitDx=0;exitDy=0;entryX=0;entryY=0.5;entryDx=0;entryDy=0;edgeStyle=orthogonalEdgeStyle;curved=1;" parent="1" source="1UCaaAMTz-ETulmOOAEi-2" target="1UCaaAMTz-ETulmOOAEi-7" edge="1">
          <mxGeometry relative="1" as="geometry">
            <mxPoint x="-1510" y="4190" as="sourcePoint" />
            <mxPoint x="-1330" y="4090" as="targetPoint" />
          </mxGeometry>
        </mxCell>
        <mxCell id="1UCaaAMTz-ETulmOOAEi-12" value="" style="rounded=0;orthogonalLoop=1;jettySize=auto;html=1;elbow=vertical;exitX=1;exitY=0.5;exitDx=0;exitDy=0;entryX=0;entryY=0.5;entryDx=0;entryDy=0;edgeStyle=orthogonalEdgeStyle;curved=1;" parent="1" source="1UCaaAMTz-ETulmOOAEi-1" target="1UCaaAMTz-ETulmOOAEi-7" edge="1">
          <mxGeometry relative="1" as="geometry">
            <mxPoint x="-1510" y="4050" as="sourcePoint" />
            <mxPoint x="-1330" y="4090" as="targetPoint" />
          </mxGeometry>
        </mxCell>
        <mxCell id="f1FmOZVaVYUZ5j-r0lyY-1" value="" style="ellipse;whiteSpace=wrap;html=1;fillColor=none;strokeColor=#BFBFBF;" parent="1" vertex="1">
          <mxGeometry x="-820" y="3480" width="120" height="80" as="geometry" />
        </mxCell>
        <mxCell id="f1FmOZVaVYUZ5j-r0lyY-2" value="&lt;font style=&quot;font-size: 16px;&quot;&gt;&lt;span&gt;і&lt;/span&gt;&lt;/font&gt;" style="text;html=1;strokeColor=none;fillColor=none;align=center;verticalAlign=middle;whiteSpace=wrap;rounded=0;fontStyle=1" parent="1" vertex="1">
          <mxGeometry x="-825" y="3480" width="120" height="80" as="geometry" />
        </mxCell>
        <mxCell id="JhPQRlO-KKgyaNoFn7eW-13" value="грамадзянін &lt;u&gt;не&lt;/u&gt; спрабуе высветліць, як гэтае ўздзеянне ўплывае на яго асабістыя інтарэсы" style="text;html=1;align=left;verticalAlign=top;whiteSpace=wrap;rounded=0;fontSize=16;rotation=0;strokeColor=default;" parent="1" vertex="1">
          <mxGeometry x="-1520" y="2080" width="200" height="120" as="geometry" />
        </mxCell>
        <mxCell id="JhPQRlO-KKgyaNoFn7eW-14" value="" style="rounded=0;orthogonalLoop=1;jettySize=auto;html=1;elbow=vertical;exitX=0;exitY=0.5;exitDx=0;exitDy=0;entryX=0.5;entryY=1;entryDx=0;entryDy=0;edgeStyle=orthogonalEdgeStyle;curved=1;" parent="1" source="trFHjS8OtI2W3_3FPiBj-26" target="JhPQRlO-KKgyaNoFn7eW-13" edge="1">
          <mxGeometry relative="1" as="geometry">
            <mxPoint x="-910" y="1895" as="sourcePoint" />
            <mxPoint x="-1146" y="2009" as="targetPoint" />
          </mxGeometry>
        </mxCell>
        <mxCell id="trFHjS8OtI2W3_3FPiBj-28" value="грамадзянін &lt;u&gt;спрабуе&lt;/u&gt; высветліць, як гэтае ўздзеянне ўплывае на яго асабістыя інтарэсы" style="text;html=1;strokeColor=#666666;fillColor=default;align=left;verticalAlign=top;whiteSpace=wrap;rounded=0;fontSize=16;fontColor=#333333;rotation=0;" parent="1" vertex="1">
          <mxGeometry x="-1520" y="2800" width="200" height="120" as="geometry" />
        </mxCell>
        <mxCell id="trFHjS8OtI2W3_3FPiBj-29" value="" style="rounded=0;orthogonalLoop=1;jettySize=auto;html=1;elbow=vertical;exitX=0;exitY=0.5;exitDx=0;exitDy=0;entryX=0.5;entryY=0;entryDx=0;entryDy=0;edgeStyle=orthogonalEdgeStyle;curved=1;" parent="1" source="trFHjS8OtI2W3_3FPiBj-26" target="trFHjS8OtI2W3_3FPiBj-28" edge="1">
          <mxGeometry relative="1" as="geometry">
            <mxPoint x="-1211" y="2623" as="sourcePoint" />
            <mxPoint x="-851" y="2418" as="targetPoint" />
          </mxGeometry>
        </mxCell>
        <mxCell id="trFHjS8OtI2W3_3FPiBj-33" value="" style="rounded=0;orthogonalLoop=1;jettySize=auto;html=1;elbow=vertical;exitX=0.5;exitY=1;exitDx=0;exitDy=0;entryX=0;entryY=0.5;entryDx=0;entryDy=0;edgeStyle=orthogonalEdgeStyle;curved=1;dashed=1;strokeColor=#001DBC;dashPattern=12 12;" parent="1" source="trFHjS8OtI2W3_3FPiBj-28" target="trFHjS8OtI2W3_3FPiBj-19" edge="1">
          <mxGeometry relative="1" as="geometry">
            <mxPoint x="-1041" y="2527.5" as="sourcePoint" />
            <mxPoint x="-817" y="2487.5" as="targetPoint" />
          </mxGeometry>
        </mxCell>
        <mxCell id="trFHjS8OtI2W3_3FPiBj-36" value="" style="rounded=0;orthogonalLoop=1;jettySize=auto;html=1;elbow=vertical;exitX=0.5;exitY=1;exitDx=0;exitDy=0;entryX=0;entryY=0.5;entryDx=0;entryDy=0;edgeStyle=orthogonalEdgeStyle;curved=1;dashed=1;strokeColor=#001DBC;dashPattern=12 12;" parent="1" source="trFHjS8OtI2W3_3FPiBj-28" target="trFHjS8OtI2W3_3FPiBj-21" edge="1">
          <mxGeometry relative="1" as="geometry">
            <mxPoint x="-1307.5" y="2828" as="sourcePoint" />
            <mxPoint x="-1151.5" y="2833" as="targetPoint" />
          </mxGeometry>
        </mxCell>
        <mxCell id="dRgE6LV4nwExN1NtKPTc-2" value="або" style="text;html=1;strokeColor=none;fillColor=none;align=center;verticalAlign=middle;whiteSpace=wrap;rounded=0;fontSize=16;fontStyle=1" parent="1" vertex="1">
          <mxGeometry x="-920" y="2950" width="60" height="30" as="geometry" />
        </mxCell>
        <mxCell id="dRgE6LV4nwExN1NtKPTc-3" value="грамадзянін &lt;u&gt;бароніць&lt;/u&gt; свае ўласныя межы" style="text;html=1;align=left;verticalAlign=top;whiteSpace=wrap;rounded=0;fontSize=16;rotation=0;fillColor=#f8cecc;strokeColor=#b85450;" parent="1" vertex="1">
          <mxGeometry x="-600" y="3360" width="160" height="120" as="geometry" />
        </mxCell>
        <mxCell id="dRgE6LV4nwExN1NtKPTc-6" value="&quot;прынцыповы пратэст&quot;" style="text;html=1;strokeColor=#b85450;fillColor=#f8cecc;align=center;verticalAlign=middle;whiteSpace=wrap;rounded=1;dashed=1;dashPattern=8 8;" parent="1" vertex="1">
          <mxGeometry x="-320" y="2640" width="120" height="40" as="geometry" />
        </mxCell>
        <mxCell id="dRgE6LV4nwExN1NtKPTc-7" value="" style="edgeStyle=orthogonalEdgeStyle;rounded=0;orthogonalLoop=1;jettySize=auto;html=1;elbow=vertical;curved=1;exitX=1;exitY=0.5;exitDx=0;exitDy=0;entryX=0.5;entryY=1;entryDx=0;entryDy=0;strokeColor=#ff0000;" parent="1" source="trFHjS8OtI2W3_3FPiBj-19" target="trFHjS8OtI2W3_3FPiBj-46" edge="1">
          <mxGeometry relative="1" as="geometry">
            <mxPoint x="-911" y="3631" as="sourcePoint" />
            <mxPoint x="-470" y="3630" as="targetPoint" />
          </mxGeometry>
        </mxCell>
        <mxCell id="dRgE6LV4nwExN1NtKPTc-9" value="&quot;я заусёды з уладай&quot;" style="text;html=1;strokeColor=#82b366;fillColor=#d5e8d4;align=center;verticalAlign=middle;whiteSpace=wrap;rounded=1;horizontal=1;dashed=1;dashPattern=8 8;" parent="1" vertex="1">
          <mxGeometry x="-520" y="2640" width="120" height="40" as="geometry" />
        </mxCell>
        <mxCell id="dRgE6LV4nwExN1NtKPTc-11" value="" style="edgeStyle=orthogonalEdgeStyle;rounded=0;orthogonalLoop=1;jettySize=auto;html=1;elbow=vertical;curved=1;exitX=1;exitY=0.5;exitDx=0;exitDy=0;fillColor=#d5e8d4;strokeColor=#00ff00;entryX=0.5;entryY=1;entryDx=0;entryDy=0;" parent="1" source="trFHjS8OtI2W3_3FPiBj-19" target="trFHjS8OtI2W3_3FPiBj-35" edge="1">
          <mxGeometry relative="1" as="geometry">
            <mxPoint x="-910" y="3830" as="sourcePoint" />
            <mxPoint x="-440" y="2980" as="targetPoint" />
          </mxGeometry>
        </mxCell>
        <mxCell id="trFHjS8OtI2W3_3FPiBj-20" value="" style="edgeStyle=orthogonalEdgeStyle;rounded=0;orthogonalLoop=1;jettySize=auto;html=1;elbow=vertical;entryX=0;entryY=0.5;entryDx=0;entryDy=0;exitX=1;exitY=0.5;exitDx=0;exitDy=0;targetPerimeterSpacing=0;curved=1;strokeColor=#858585;" parent="1" source="trFHjS8OtI2W3_3FPiBj-19" target="trFHjS8OtI2W3_3FPiBj-16" edge="1">
          <mxGeometry relative="1" as="geometry">
            <mxPoint x="-603" y="910" as="sourcePoint" />
            <mxPoint x="-363" y="680" as="targetPoint" />
          </mxGeometry>
        </mxCell>
        <mxCell id="JhPQRlO-KKgyaNoFn7eW-8" value="У гэтым слупку ўсе (&lt;font color=&quot;#ff0000&quot;&gt;? усе ?&lt;/font&gt;) магчымыя прычыны чаму грамадзянін не жадае спрабаваць высветліць, як дадзеная асобная з&#39;ява ўплывае на яго асабістыя інтарэсы." style="swimlane;whiteSpace=wrap;html=1;fontSize=14;verticalAlign=top;fillColor=#E6E6E6;strokeColor=#B3B3B3;fontStyle=0;rounded=1;fillStyle=zigzag-line;glass=0;shadow=0;swimlaneFillColor=#E6E6E6;spacing=2;swimlaneLine=0;points=[[0,0,0,0,0],[0,0.25,0,0,0],[0,0.5,0,0,0],[0,0.75,0,0,0],[0,1,0,0,0],[0.25,0,0,0,0],[0.25,1,0,0,0],[0.5,0,0,0,0],[0.5,1,0,0,0],[0.75,0,0,0,0],[0.75,1,0,0,0],[1,0,0,0,0],[1,0.15,0,0,0],[1,0.25,0,0,0],[1,0.5,0,0,0],[1,0.75,0,0,0],[1,1,0,0,0]];" parent="1" vertex="1">
          <mxGeometry x="-2601" y="2400" width="400" height="720" as="geometry">
            <mxRectangle x="40" y="680" width="510" height="60" as="alternateBounds" />
          </mxGeometry>
        </mxCell>
        <mxCell id="RNDRSYDRFuZBWHNrruaz-3" value="&lt;div&gt;Стах нейкіх наступстваў высвятлення. Напрыклад:&lt;br&gt;- я буду разумець, што адбываецца нешта жудаснае. Лепей &quot;схаваць галаву ў пясок&quot;.&lt;/div&gt;&lt;div&gt;- з гэтым патрэбна будзе нешта рабіць, а я не магу. Адчуваць уласную бездапаможнасць вельмі жудасна. Лепей &quot;схаваць галаву ў пясок&quot;.&lt;/div&gt;" style="text;html=1;align=left;verticalAlign=top;whiteSpace=wrap;rounded=0;fontSize=16;strokeColor=default;rotation=0;fillColor=default;" parent="JhPQRlO-KKgyaNoFn7eW-8" vertex="1">
          <mxGeometry x="40" y="120" width="320" height="200" as="geometry" />
        </mxCell>
        <mxCell id="RNDRSYDRFuZBWHNrruaz-4" value="Адсутнасць цікаўнасці да гэтага таго, як дадзенае асобнае ўздзеянне ўплывае на яго асабістыя інтарэсы." style="text;html=1;align=left;verticalAlign=top;whiteSpace=wrap;rounded=0;fontSize=16;strokeColor=default;rotation=0;fillColor=default;" parent="JhPQRlO-KKgyaNoFn7eW-8" vertex="1">
          <mxGeometry x="40" y="480" width="320" height="80" as="geometry" />
        </mxCell>
        <mxCell id="JhPQRlO-KKgyaNoFn7eW-9" value="Грамадзянін лічыць, што высветліць гэта надта складана. Не жадае марнаваць на гэта свой час/рэсурсы." style="text;html=1;align=left;verticalAlign=top;whiteSpace=wrap;rounded=0;fontSize=16;strokeColor=default;rotation=0;fillColor=default;" parent="JhPQRlO-KKgyaNoFn7eW-8" vertex="1">
          <mxGeometry x="40" y="360" width="320" height="80" as="geometry" />
        </mxCell>
        <mxCell id="JhPQRlO-KKgyaNoFn7eW-11" value="Грамадзянін лічыць, што высвятляць, як нешта ўплывае асабіста на яго гэта амаральна. &quot;Быць эгаістам дрэнна&quot;." style="text;html=1;align=left;verticalAlign=top;whiteSpace=wrap;rounded=0;fontSize=16;strokeColor=default;rotation=0;fillColor=default;" parent="JhPQRlO-KKgyaNoFn7eW-8" vertex="1">
          <mxGeometry x="40" y="600" width="320" height="80" as="geometry" />
        </mxCell>
        <mxCell id="RKpNLnjRRikUdjr9KZIu-2" value="" style="endArrow=classic;html=1;rounded=0;entryX=0;entryY=0.5;entryDx=0;entryDy=0;exitX=1;exitY=0.5;exitDx=0;exitDy=0;edgeStyle=orthogonalEdgeStyle;curved=1;" parent="1" source="RKpNLnjRRikUdjr9KZIu-4" target="1UCaaAMTz-ETulmOOAEi-3" edge="1">
          <mxGeometry width="50" height="50" relative="1" as="geometry">
            <mxPoint x="-2130" y="4150" as="sourcePoint" />
            <mxPoint x="-1990" y="4010" as="targetPoint" />
            <Array as="points">
              <mxPoint x="-3080" y="2040" />
              <mxPoint x="-3080" y="3640" />
            </Array>
          </mxGeometry>
        </mxCell>
        <mxCell id="RKpNLnjRRikUdjr9KZIu-3" value="" style="endArrow=classic;html=1;rounded=0;edgeStyle=orthogonalEdgeStyle;curved=1;exitX=1;exitY=0.5;exitDx=0;exitDy=0;entryX=0;entryY=0.5;entryDx=0;entryDy=0;" parent="1" source="RKpNLnjRRikUdjr9KZIu-4" target="Z-fySZ9CyFiNbup-F0ZK-2" edge="1">
          <mxGeometry width="50" height="50" relative="1" as="geometry">
            <mxPoint x="-2760" y="2970" as="sourcePoint" />
            <mxPoint x="-2680" y="2340" as="targetPoint" />
          </mxGeometry>
        </mxCell>
        <mxCell id="RKpNLnjRRikUdjr9KZIu-4" value="1" style="ellipse;whiteSpace=wrap;html=1;aspect=fixed;fontSize=18;strokeColor=#0000CC;fontColor=#0000CC;fontStyle=1;" parent="1" vertex="1">
          <mxGeometry x="-3215" y="2025" width="30" height="30" as="geometry" />
        </mxCell>
        <mxCell id="RKpNLnjRRikUdjr9KZIu-5" value="" style="endArrow=classic;html=1;rounded=0;entryX=0;entryY=0.5;entryDx=0;entryDy=0;edgeStyle=orthogonalEdgeStyle;curved=1;exitX=1;exitY=0.5;exitDx=0;exitDy=0;" parent="1" source="22lI2lt3FdTWuDDGKJeW-1" target="RKpNLnjRRikUdjr9KZIu-4" edge="1">
          <mxGeometry width="50" height="50" relative="1" as="geometry">
            <mxPoint x="-3299.5" y="2710" as="sourcePoint" />
            <mxPoint x="-3090.5" y="2670" as="targetPoint" />
          </mxGeometry>
        </mxCell>
        <mxCell id="RKpNLnjRRikUdjr9KZIu-6" value="" style="endArrow=classic;html=1;rounded=0;entryX=0;entryY=0.5;entryDx=0;entryDy=0;edgeStyle=orthogonalEdgeStyle;curved=1;exitX=1;exitY=0.5;exitDx=0;exitDy=0;" parent="1" source="RKpNLnjRRikUdjr9KZIu-1" target="RKpNLnjRRikUdjr9KZIu-4" edge="1">
          <mxGeometry width="50" height="50" relative="1" as="geometry">
            <mxPoint x="-3378" y="2790" as="sourcePoint" />
            <mxPoint x="-3150" y="2850" as="targetPoint" />
          </mxGeometry>
        </mxCell>
        <mxCell id="RKpNLnjRRikUdjr9KZIu-8" value="" style="endArrow=classic;html=1;rounded=0;entryX=0;entryY=0.5;entryDx=0;entryDy=0;edgeStyle=orthogonalEdgeStyle;curved=1;exitX=1;exitY=0.5;exitDx=0;exitDy=0;" parent="1" source="RNDRSYDRFuZBWHNrruaz-5" target="JhPQRlO-KKgyaNoFn7eW-11" edge="1">
          <mxGeometry width="50" height="50" relative="1" as="geometry">
            <mxPoint x="-2710" y="3210" as="sourcePoint" />
            <mxPoint x="-2551" y="2930" as="targetPoint" />
          </mxGeometry>
        </mxCell>
        <mxCell id="trFHjS8OtI2W3_3FPiBj-53" value="або" style="text;html=1;strokeColor=none;fillColor=none;align=center;verticalAlign=middle;whiteSpace=wrap;rounded=0;fontSize=16;fontStyle=1" parent="1" vertex="1">
          <mxGeometry x="-1300" y="2470" width="60" height="30" as="geometry" />
        </mxCell>
        <mxCell id="lAl6IwTCLYnLzIhwObD8-1" value="Немагчымасць&amp;nbsp;змяніць значныя для сябе аспекты ва ўзаемаадносінах з уладай вядзе да стрэсу грамадзяніна. Гэты стрэс прыводзіць да вельмі розных праяў. Ад вымяшчэння злосці на слабейшых да праблем з псіхікай і фізічным здароўем.&lt;br&gt;&lt;br&gt;Калі грамадзянін разумее прычыны свайго стрэсу, то немагчымасць змяніць значныя для сябе аспекты ва ўзаемаадносінах можа прывесці да &quot;выхаду з адносін&quot;. Напэўна, гэта азначае&amp;nbsp;— пакінуць краіну і пазбавіцца ад усіх сувязей з ёй." style="text;html=1;strokeColor=#b85450;fillColor=#f8cecc;align=left;verticalAlign=top;whiteSpace=wrap;rounded=0;fontSize=16;fontStyle=0" parent="1" vertex="1">
          <mxGeometry x="-640" y="80" width="400" height="240" as="geometry" />
        </mxCell>
        <mxCell id="lAl6IwTCLYnLzIhwObD8-2" value="" style="edgeStyle=orthogonalEdgeStyle;rounded=0;orthogonalLoop=1;jettySize=auto;html=1;elbow=vertical;curved=1;exitX=0.5;exitY=0;exitDx=0;exitDy=0;entryX=0.5;entryY=1;entryDx=0;entryDy=0;strokeColor=#ff0000;" parent="1" source="trFHjS8OtI2W3_3FPiBj-3" target="lAl6IwTCLYnLzIhwObD8-1" edge="1">
          <mxGeometry relative="1" as="geometry">
            <mxPoint x="-620.5" y="410" as="sourcePoint" />
            <mxPoint x="-440" y="600" as="targetPoint" />
          </mxGeometry>
        </mxCell>
        <mxCell id="B-bpBMmvNKlXQOACEIDy-1" value="" style="endArrow=none;dashed=1;html=1;rounded=0;exitX=0.5;exitY=1;exitDx=0;exitDy=0;fillColor=#f5f5f5;strokeColor=#666666;" parent="1" source="dRgE6LV4nwExN1NtKPTc-9" edge="1">
          <mxGeometry width="50" height="50" relative="1" as="geometry">
            <mxPoint x="-800" y="2790" as="sourcePoint" />
            <mxPoint x="-400" y="2770" as="targetPoint" />
          </mxGeometry>
        </mxCell>
        <mxCell id="B-bpBMmvNKlXQOACEIDy-2" value="" style="endArrow=none;dashed=1;html=1;rounded=0;exitX=0.5;exitY=1;exitDx=0;exitDy=0;fillColor=#f5f5f5;strokeColor=#666666;" parent="1" source="dRgE6LV4nwExN1NtKPTc-6" edge="1">
          <mxGeometry width="50" height="50" relative="1" as="geometry">
            <mxPoint x="-269" y="2683" as="sourcePoint" />
            <mxPoint x="-210" y="2750" as="targetPoint" />
          </mxGeometry>
        </mxCell>
        <mxCell id="j5JjeeWauFz4Uhg9E__5-9" value="або" style="text;html=1;strokeColor=none;fillColor=none;align=center;verticalAlign=middle;whiteSpace=wrap;rounded=0;fontSize=16;fontStyle=1" parent="1" vertex="1">
          <mxGeometry x="1240" y="2470" width="60" height="30" as="geometry" />
        </mxCell>
        <mxCell id="8KlCnt_39-ksAiERNVki-1" value="або" style="text;html=1;strokeColor=none;fillColor=none;align=center;verticalAlign=middle;whiteSpace=wrap;rounded=0;fontSize=16;fontStyle=1" parent="1" vertex="1">
          <mxGeometry x="860" y="2950" width="60" height="30" as="geometry" />
        </mxCell>
        <mxCell id="8KlCnt_39-ksAiERNVki-2" value="грамадзянін &lt;u&gt;не&lt;/u&gt; спрабуе высветліць, наколькі важнае яго патрабаванне да ўлады для яго самога." style="text;html=1;strokeColor=#666666;fillColor=default;align=left;verticalAlign=top;whiteSpace=wrap;rounded=0;fontSize=16;fontColor=#333333;rotation=0;" parent="1" vertex="1">
          <mxGeometry x="1320" y="2080" width="200" height="120" as="geometry" />
        </mxCell>
        <mxCell id="8KlCnt_39-ksAiERNVki-3" value="" style="rounded=0;orthogonalLoop=1;jettySize=auto;html=1;elbow=vertical;exitX=1;exitY=0.5;exitDx=0;exitDy=0;entryX=0.5;entryY=1;entryDx=0;entryDy=0;edgeStyle=orthogonalEdgeStyle;curved=1;" parent="1" source="j5JjeeWauFz4Uhg9E__5-5" target="8KlCnt_39-ksAiERNVki-2" edge="1">
          <mxGeometry relative="1" as="geometry">
            <mxPoint x="1250" y="2510" as="sourcePoint" />
            <mxPoint x="1430" y="2810" as="targetPoint" />
          </mxGeometry>
        </mxCell>
        <mxCell id="8KlCnt_39-ksAiERNVki-4" value="" style="rounded=0;orthogonalLoop=1;jettySize=auto;html=1;elbow=vertical;exitX=0;exitY=0.25;exitDx=0;exitDy=0;entryX=1;entryY=0.5;entryDx=0;entryDy=0;edgeStyle=orthogonalEdgeStyle;curved=1;" parent="1" source="j5JjeeWauFz4Uhg9E__5-1" target="8KlCnt_39-ksAiERNVki-2" edge="1">
          <mxGeometry relative="1" as="geometry">
            <mxPoint x="1250" y="2510" as="sourcePoint" />
            <mxPoint x="1430" y="2210" as="targetPoint" />
          </mxGeometry>
        </mxCell>
        <mxCell id="8KlCnt_39-ksAiERNVki-7" value="" style="rounded=0;orthogonalLoop=1;jettySize=auto;html=1;elbow=vertical;exitX=0;exitY=0.5;exitDx=0;exitDy=0;entryX=1;entryY=0.5;entryDx=0;entryDy=0;edgeStyle=orthogonalEdgeStyle;curved=1;" parent="1" source="8KlCnt_39-ksAiERNVki-6" target="8KlCnt_39-ksAiERNVki-2" edge="1">
          <mxGeometry relative="1" as="geometry">
            <mxPoint x="1690" y="2760" as="sourcePoint" />
            <mxPoint x="1530" y="2150" as="targetPoint" />
          </mxGeometry>
        </mxCell>
        <mxCell id="8KlCnt_39-ksAiERNVki-10" value="" style="rounded=0;orthogonalLoop=1;jettySize=auto;html=1;elbow=vertical;exitX=0;exitY=0.5;exitDx=0;exitDy=0;entryX=1;entryY=0.5;entryDx=0;entryDy=0;edgeStyle=orthogonalEdgeStyle;curved=1;" parent="1" source="8KlCnt_39-ksAiERNVki-9" target="8KlCnt_39-ksAiERNVki-2" edge="1">
          <mxGeometry relative="1" as="geometry">
            <mxPoint x="1690" y="2310" as="sourcePoint" />
            <mxPoint x="1530" y="2150" as="targetPoint" />
          </mxGeometry>
        </mxCell>
        <mxCell id="8KlCnt_39-ksAiERNVki-11" value="" style="rounded=0;orthogonalLoop=1;jettySize=auto;html=1;elbow=vertical;exitX=0;exitY=0.5;exitDx=0;exitDy=0;entryX=1;entryY=0.5;entryDx=0;entryDy=0;edgeStyle=orthogonalEdgeStyle;curved=1;" parent="1" source="8KlCnt_39-ksAiERNVki-8" target="8KlCnt_39-ksAiERNVki-2" edge="1">
          <mxGeometry relative="1" as="geometry">
            <mxPoint x="1690" y="2130" as="sourcePoint" />
            <mxPoint x="1530" y="2150" as="targetPoint" />
          </mxGeometry>
        </mxCell>
        <mxCell id="u8j-KaxE-SIpMTuqpm7c-1" value="У гэтым слупку ўсе (&lt;font color=&quot;#ff0000&quot;&gt;? усе ?&lt;/font&gt;) магчымыя прычыны чаму грамадзянін не ведае, што ў яго ёсць нейкае патрабаванне да ўлады" style="swimlane;whiteSpace=wrap;html=1;fontSize=14;verticalAlign=top;fillColor=#E6E6E6;strokeColor=#B3B3B3;fontStyle=0;rounded=1;fillStyle=zigzag-line;glass=0;shadow=0;swimlaneFillColor=#E6E6E6;spacing=2;swimlaneLine=0;" parent="1" vertex="1">
          <mxGeometry x="1640" y="560" width="400" height="1160" as="geometry">
            <mxRectangle x="-1280" y="1480" width="900" height="30" as="alternateBounds" />
          </mxGeometry>
        </mxCell>
        <mxCell id="u8j-KaxE-SIpMTuqpm7c-2" value="Грамадства &lt;b&gt;актыўна перашкаджае грамадзяніну&lt;/b&gt; разбірацца ў сваіх уласных пажаданнях. Прыклады:&lt;br&gt;- грамадства кажа, што надаваць значную увагу сваім пажаданням гэта брыдка;&lt;br&gt;- грамадства кажа, што патрэбна рабіць тое, што сказалі старэйшыя, а не задаваць дурныя пытанні;&lt;br&gt;- грамадства кажа, што ў цябе бульбачка на патэльні ёсць, мяса на патэльні ёсць, то чаго ж ты лезеш у палітыку;&lt;br&gt;- ...&lt;br&gt; " style="text;html=1;align=left;verticalAlign=top;whiteSpace=wrap;rounded=0;fontSize=16;strokeColor=default;rotation=0;fillColor=default;fontColor=default;" parent="u8j-KaxE-SIpMTuqpm7c-1" vertex="1">
          <mxGeometry x="40" y="120" width="320" height="240" as="geometry" />
        </mxCell>
        <mxCell id="u8j-KaxE-SIpMTuqpm7c-3" value="Улада не будуе інструменты неабходныя для таго, каб грамадзяне заўважалі свае пажаданні.&lt;b&gt; Адсутнічаюць або недастаткова якасныя інструменты&lt;/b&gt;, якія дазваляюць грамадзяніну хутка заўважаць свае патрабаванні да ўлады.&lt;br&gt; " style="text;html=1;align=left;verticalAlign=top;whiteSpace=wrap;rounded=0;fontSize=16;strokeColor=default;rotation=0;fillColor=default;fontColor=default;" parent="u8j-KaxE-SIpMTuqpm7c-1" vertex="1">
          <mxGeometry x="40" y="400" width="320" height="160" as="geometry" />
        </mxCell>
        <mxCell id="u8j-KaxE-SIpMTuqpm7c-4" value="&lt;b&gt;Грамадзянін не ведае&lt;/b&gt;, што можна даведвацца пра сваі патрабаванні да ўлады. (Ніхто ніколі не казаў яму, што &quot;так было можна&quot;. А сам ён ніколі такога не назіраў. Так званая &quot;сляпая пляма&quot;.)&lt;br&gt; " style="text;html=1;align=left;verticalAlign=top;whiteSpace=wrap;rounded=0;fontSize=16;strokeColor=default;rotation=0;fillColor=default;" parent="u8j-KaxE-SIpMTuqpm7c-1" vertex="1">
          <mxGeometry x="40" y="600" width="320" height="160" as="geometry" />
        </mxCell>
        <mxCell id="u8j-KaxE-SIpMTuqpm7c-5" value="&lt;b&gt;Грамадзянін не ўмее&lt;/b&gt; карыстацца існуючымі інструментамі.&lt;br&gt; " style="text;html=1;align=left;verticalAlign=top;whiteSpace=wrap;rounded=0;fontSize=16;strokeColor=default;rotation=0;fillColor=default;fontColor=#FF0000;" parent="u8j-KaxE-SIpMTuqpm7c-1" vertex="1">
          <mxGeometry x="40" y="800" width="320" height="80" as="geometry" />
        </mxCell>
        <mxCell id="u8j-KaxE-SIpMTuqpm7c-6" value="&lt;b&gt;Грамадзянін не можа&lt;/b&gt; карыстацца існуючымі інструментамі.&lt;br&gt; " style="text;html=1;align=left;verticalAlign=top;whiteSpace=wrap;rounded=0;fontSize=16;strokeColor=default;rotation=0;fillColor=default;fontColor=#FF0000;" parent="u8j-KaxE-SIpMTuqpm7c-1" vertex="1">
          <mxGeometry x="40" y="920" width="320" height="80" as="geometry" />
        </mxCell>
        <mxCell id="u8j-KaxE-SIpMTuqpm7c-7" value="&lt;b&gt;Грамадзянін не жадае ведаць&lt;/b&gt; пра свае патрабаванні да ўлады.&lt;br&gt; " style="text;html=1;align=left;verticalAlign=top;whiteSpace=wrap;rounded=0;fontSize=16;strokeColor=default;rotation=0;fillColor=default;" parent="u8j-KaxE-SIpMTuqpm7c-1" vertex="1">
          <mxGeometry x="40" y="1040" width="320" height="80" as="geometry" />
        </mxCell>
        <mxCell id="u8j-KaxE-SIpMTuqpm7c-8" value="" style="rounded=0;orthogonalLoop=1;jettySize=auto;html=1;elbow=vertical;exitX=0;exitY=0.5;exitDx=0;exitDy=0;entryX=1;entryY=0.5;entryDx=0;entryDy=0;edgeStyle=orthogonalEdgeStyle;curved=1;" parent="1" source="u8j-KaxE-SIpMTuqpm7c-2" target="hciFa1by5LvJK5wFZR8x-1" edge="1">
          <mxGeometry relative="1" as="geometry">
            <mxPoint x="1560" y="820" as="sourcePoint" />
            <mxPoint x="1400" y="1020" as="targetPoint" />
          </mxGeometry>
        </mxCell>
        <mxCell id="u8j-KaxE-SIpMTuqpm7c-9" value="" style="rounded=0;orthogonalLoop=1;jettySize=auto;html=1;elbow=vertical;exitX=0;exitY=0.5;exitDx=0;exitDy=0;entryX=1;entryY=0.5;entryDx=0;entryDy=0;edgeStyle=orthogonalEdgeStyle;curved=1;" parent="1" source="u8j-KaxE-SIpMTuqpm7c-3" target="hciFa1by5LvJK5wFZR8x-1" edge="1">
          <mxGeometry relative="1" as="geometry">
            <mxPoint x="1570" y="830" as="sourcePoint" />
            <mxPoint x="1410" y="1030" as="targetPoint" />
          </mxGeometry>
        </mxCell>
        <mxCell id="u8j-KaxE-SIpMTuqpm7c-10" value="" style="rounded=0;orthogonalLoop=1;jettySize=auto;html=1;elbow=vertical;exitX=0;exitY=0.5;exitDx=0;exitDy=0;entryX=1;entryY=0.5;entryDx=0;entryDy=0;edgeStyle=orthogonalEdgeStyle;curved=1;" parent="1" source="u8j-KaxE-SIpMTuqpm7c-4" target="hciFa1by5LvJK5wFZR8x-1" edge="1">
          <mxGeometry relative="1" as="geometry">
            <mxPoint x="1580" y="840" as="sourcePoint" />
            <mxPoint x="1420" y="1040" as="targetPoint" />
          </mxGeometry>
        </mxCell>
        <mxCell id="u8j-KaxE-SIpMTuqpm7c-11" value="" style="rounded=0;orthogonalLoop=1;jettySize=auto;html=1;elbow=vertical;exitX=0;exitY=0.5;exitDx=0;exitDy=0;entryX=1;entryY=0.5;entryDx=0;entryDy=0;edgeStyle=orthogonalEdgeStyle;curved=1;" parent="1" source="u8j-KaxE-SIpMTuqpm7c-6" target="hciFa1by5LvJK5wFZR8x-1" edge="1">
          <mxGeometry relative="1" as="geometry">
            <mxPoint x="1590" y="850" as="sourcePoint" />
            <mxPoint x="1430" y="1050" as="targetPoint" />
          </mxGeometry>
        </mxCell>
        <mxCell id="u8j-KaxE-SIpMTuqpm7c-12" value="" style="rounded=0;orthogonalLoop=1;jettySize=auto;html=1;elbow=vertical;exitX=0;exitY=0.5;exitDx=0;exitDy=0;entryX=1;entryY=0.5;entryDx=0;entryDy=0;edgeStyle=orthogonalEdgeStyle;curved=1;" parent="1" source="u8j-KaxE-SIpMTuqpm7c-5" target="hciFa1by5LvJK5wFZR8x-1" edge="1">
          <mxGeometry relative="1" as="geometry">
            <mxPoint x="1600" y="860" as="sourcePoint" />
            <mxPoint x="1440" y="1060" as="targetPoint" />
          </mxGeometry>
        </mxCell>
        <mxCell id="u8j-KaxE-SIpMTuqpm7c-13" value="" style="rounded=0;orthogonalLoop=1;jettySize=auto;html=1;elbow=vertical;exitX=0;exitY=0.5;exitDx=0;exitDy=0;entryX=1;entryY=0.5;entryDx=0;entryDy=0;edgeStyle=orthogonalEdgeStyle;curved=1;" parent="1" source="u8j-KaxE-SIpMTuqpm7c-7" target="hciFa1by5LvJK5wFZR8x-1" edge="1">
          <mxGeometry relative="1" as="geometry">
            <mxPoint x="1690" y="1487" as="sourcePoint" />
            <mxPoint x="1250" y="1210" as="targetPoint" />
          </mxGeometry>
        </mxCell>
        <mxCell id="u8j-KaxE-SIpMTuqpm7c-14" value="грамадзянін &lt;u&gt;не&lt;/u&gt; бароніць свае ўласныя межы" style="text;html=1;align=left;verticalAlign=top;whiteSpace=wrap;rounded=0;fontSize=16;rotation=0;fillColor=#f5f5f5;strokeColor=#BFBFBF;fontColor=#333333;" parent="1" vertex="1">
          <mxGeometry x="680" y="3360" width="160" height="120" as="geometry" />
        </mxCell>
        <mxCell id="u8j-KaxE-SIpMTuqpm7c-15" value="" style="ellipse;whiteSpace=wrap;html=1;fillColor=none;strokeColor=#BFBFBF;" parent="1" vertex="1">
          <mxGeometry x="700" y="3480" width="120" height="80" as="geometry" />
        </mxCell>
        <mxCell id="u8j-KaxE-SIpMTuqpm7c-16" value="&lt;font style=&quot;font-size: 16px;&quot;&gt;&lt;span&gt;і&lt;/span&gt;&lt;/font&gt;" style="text;html=1;strokeColor=none;fillColor=none;align=center;verticalAlign=middle;whiteSpace=wrap;rounded=0;fontStyle=1" parent="1" vertex="1">
          <mxGeometry x="705" y="3480" width="120" height="80" as="geometry" />
        </mxCell>
        <mxCell id="u8j-KaxE-SIpMTuqpm7c-17" value="" style="rounded=0;orthogonalLoop=1;jettySize=auto;html=1;elbow=vertical;exitX=0;exitY=0.5;exitDx=0;exitDy=0;entryX=0.5;entryY=1;entryDx=0;entryDy=0;edgeStyle=orthogonalEdgeStyle;curved=1;" parent="1" source="utNHYfiI1P-ElOVeHikR-2" target="u8j-KaxE-SIpMTuqpm7c-14" edge="1">
          <mxGeometry relative="1" as="geometry">
            <mxPoint x="400" y="3749.5" as="sourcePoint" />
            <mxPoint x="560" y="3449.5" as="targetPoint" />
          </mxGeometry>
        </mxCell>
        <mxCell id="u8j-KaxE-SIpMTuqpm7c-18" value="3" style="ellipse;whiteSpace=wrap;html=1;aspect=fixed;fontColor=#0000CC;strokeColor=#0000CC;fontStyle=1;fontSize=18;" parent="1" vertex="1">
          <mxGeometry x="2105" y="3565" width="30" height="30" as="geometry" />
        </mxCell>
        <mxCell id="u8j-KaxE-SIpMTuqpm7c-19" value="" style="rounded=0;orthogonalLoop=1;jettySize=auto;html=1;elbow=vertical;exitX=0;exitY=0.5;exitDx=0;exitDy=0;entryX=0.5;entryY=1;entryDx=0;entryDy=0;edgeStyle=orthogonalEdgeStyle;curved=1;" parent="1" source="u8j-KaxE-SIpMTuqpm7c-18" target="u8j-KaxE-SIpMTuqpm7c-14" edge="1">
          <mxGeometry relative="1" as="geometry">
            <mxPoint x="930" y="3790" as="sourcePoint" />
            <mxPoint x="770" y="3490" as="targetPoint" />
          </mxGeometry>
        </mxCell>
        <mxCell id="u8j-KaxE-SIpMTuqpm7c-20" value="грамадзянін &lt;u&gt;бароніць&lt;/u&gt; свае ўласныя межы" style="text;html=1;align=left;verticalAlign=top;whiteSpace=wrap;rounded=0;fontSize=16;rotation=0;fillColor=#f8cecc;strokeColor=#b85450;" parent="1" vertex="1">
          <mxGeometry x="440" y="3360" width="160" height="120" as="geometry" />
        </mxCell>
        <mxCell id="u8j-KaxE-SIpMTuqpm7c-21" value="" style="rounded=0;orthogonalLoop=1;jettySize=auto;html=1;elbow=vertical;exitX=1;exitY=0.5;exitDx=0;exitDy=0;entryX=0.5;entryY=1;entryDx=0;entryDy=0;edgeStyle=orthogonalEdgeStyle;curved=1;" parent="1" source="trFHjS8OtI2W3_3FPiBj-41" target="dRgE6LV4nwExN1NtKPTc-3" edge="1">
          <mxGeometry relative="1" as="geometry">
            <mxPoint x="-780" y="3810" as="sourcePoint" />
            <mxPoint x="-620" y="3510" as="targetPoint" />
          </mxGeometry>
        </mxCell>
        <mxCell id="u8j-KaxE-SIpMTuqpm7c-22" value="" style="rounded=0;orthogonalLoop=1;jettySize=auto;html=1;elbow=vertical;exitX=0;exitY=0.5;exitDx=0;exitDy=0;entryX=0.5;entryY=1;entryDx=0;entryDy=0;edgeStyle=orthogonalEdgeStyle;curved=1;" parent="1" source="utNHYfiI1P-ElOVeHikR-2" target="u8j-KaxE-SIpMTuqpm7c-20" edge="1">
          <mxGeometry relative="1" as="geometry">
            <mxPoint x="680" y="3820" as="sourcePoint" />
            <mxPoint x="520" y="3520" as="targetPoint" />
          </mxGeometry>
        </mxCell>
        <mxCell id="u8j-KaxE-SIpMTuqpm7c-23" value="2" style="ellipse;whiteSpace=wrap;html=1;aspect=fixed;fontColor=#0000CC;strokeColor=#0000CC;fontStyle=1;fontSize=18;" parent="1" vertex="1">
          <mxGeometry x="-2135" y="2805" width="30" height="30" as="geometry" />
        </mxCell>
        <mxCell id="u8j-KaxE-SIpMTuqpm7c-24" value="" style="rounded=0;orthogonalLoop=1;jettySize=auto;html=1;elbow=vertical;exitX=1;exitY=0.5;exitDx=0;exitDy=0;entryX=0;entryY=0.5;entryDx=0;entryDy=0;edgeStyle=orthogonalEdgeStyle;curved=1;" parent="1" source="u8j-KaxE-SIpMTuqpm7c-23" target="ZGO1qrQpXi79sG8c-zsR-1" edge="1">
          <mxGeometry relative="1" as="geometry">
            <mxPoint x="-2231" y="3050" as="sourcePoint" />
            <mxPoint x="-2130" y="2785" as="targetPoint" />
          </mxGeometry>
        </mxCell>
        <mxCell id="u8j-KaxE-SIpMTuqpm7c-25" value="2" style="ellipse;whiteSpace=wrap;html=1;aspect=fixed;fontColor=#0000CC;strokeColor=#0000CC;fontStyle=1;fontSize=18;" parent="1" vertex="1">
          <mxGeometry x="2105" y="2805" width="30" height="30" as="geometry" />
        </mxCell>
        <mxCell id="u8j-KaxE-SIpMTuqpm7c-26" value="" style="rounded=0;orthogonalLoop=1;jettySize=auto;html=1;elbow=vertical;exitX=0;exitY=0.5;exitDx=0;exitDy=0;entryX=1;entryY=0.5;entryDx=0;entryDy=0;edgeStyle=orthogonalEdgeStyle;curved=1;" parent="1" source="u8j-KaxE-SIpMTuqpm7c-25" target="j5JjeeWauFz4Uhg9E__5-1" edge="1">
          <mxGeometry relative="1" as="geometry">
            <mxPoint x="1994" y="3050" as="sourcePoint" />
            <mxPoint x="2225" y="2780" as="targetPoint" />
          </mxGeometry>
        </mxCell>
        <mxCell id="u8j-KaxE-SIpMTuqpm7c-27" value="" style="endArrow=classic;html=1;rounded=0;edgeStyle=orthogonalEdgeStyle;curved=1;exitX=1;exitY=0.5;exitDx=0;exitDy=0;entryX=0;entryY=0.5;entryDx=0;entryDy=0;" parent="1" source="RKpNLnjRRikUdjr9KZIu-4" target="o80giRriBsHeoGOEMKfS-1" edge="1">
          <mxGeometry width="50" height="50" relative="1" as="geometry">
            <mxPoint x="-3245" y="2850" as="sourcePoint" />
            <mxPoint x="-2320" y="2090" as="targetPoint" />
          </mxGeometry>
        </mxCell>
        <mxCell id="8W4iyF8bD5PTs7V5SWev-1" value="" style="edgeStyle=orthogonalEdgeStyle;rounded=0;orthogonalLoop=1;jettySize=auto;html=1;elbow=vertical;curved=1;exitX=0;exitY=0.5;exitDx=0;exitDy=0;entryX=0.5;entryY=1;entryDx=0;entryDy=0;strokeColor=#ff0000;" parent="1" source="u4h5CCwdaAVt-h-GZreR-3" target="utNHYfiI1P-ElOVeHikR-3" edge="1">
          <mxGeometry relative="1" as="geometry">
            <mxPoint x="450" y="3430" as="sourcePoint" />
            <mxPoint x="130" y="2450" as="targetPoint" />
          </mxGeometry>
        </mxCell>
        <mxCell id="8W4iyF8bD5PTs7V5SWev-2" value="&quot;прынцыпова дамагуся свайго&quot;" style="text;html=1;strokeColor=#b85450;fillColor=#f8cecc;align=center;verticalAlign=middle;whiteSpace=wrap;rounded=1;dashed=1;dashPattern=8 8;" parent="1" vertex="1">
          <mxGeometry x="200" y="2640" width="120" height="40" as="geometry" />
        </mxCell>
        <mxCell id="8W4iyF8bD5PTs7V5SWev-3" value="" style="endArrow=none;dashed=1;html=1;rounded=0;exitX=0.5;exitY=1;exitDx=0;exitDy=0;fillColor=#f5f5f5;strokeColor=#666666;" parent="1" source="8W4iyF8bD5PTs7V5SWev-2" edge="1">
          <mxGeometry width="50" height="50" relative="1" as="geometry">
            <mxPoint x="260" y="2690" as="sourcePoint" />
            <mxPoint x="210" y="2750" as="targetPoint" />
          </mxGeometry>
        </mxCell>
        <mxCell id="8W4iyF8bD5PTs7V5SWev-4" value="" style="edgeStyle=orthogonalEdgeStyle;rounded=0;orthogonalLoop=1;jettySize=auto;html=1;elbow=vertical;curved=1;exitX=0;exitY=0.5;exitDx=0;exitDy=0;entryX=0.5;entryY=1;entryDx=0;entryDy=0;fillColor=#d5e8d4;strokeColor=#00ff00;" parent="1" source="u4h5CCwdaAVt-h-GZreR-3" target="j5JjeeWauFz4Uhg9E__5-15" edge="1">
          <mxGeometry relative="1" as="geometry">
            <mxPoint x="930" y="3230" as="sourcePoint" />
            <mxPoint x="330" y="2450" as="targetPoint" />
          </mxGeometry>
        </mxCell>
        <mxCell id="8W4iyF8bD5PTs7V5SWev-5" value="&quot;прыемная нагода для ўзаемадзеяння&quot;" style="text;html=1;strokeColor=#82b366;fillColor=#d5e8d4;align=center;verticalAlign=middle;whiteSpace=wrap;rounded=1;horizontal=1;dashed=1;dashPattern=8 8;" parent="1" vertex="1">
          <mxGeometry x="400" y="2640" width="120" height="40" as="geometry" />
        </mxCell>
        <mxCell id="8W4iyF8bD5PTs7V5SWev-6" value="" style="endArrow=none;dashed=1;html=1;rounded=0;exitX=0.5;exitY=1;exitDx=0;exitDy=0;fillColor=#f5f5f5;strokeColor=#666666;" parent="1" source="8W4iyF8bD5PTs7V5SWev-5" edge="1">
          <mxGeometry width="50" height="50" relative="1" as="geometry">
            <mxPoint x="460" y="2680" as="sourcePoint" />
            <mxPoint x="400" y="2770" as="targetPoint" />
          </mxGeometry>
        </mxCell>
        <mxCell id="8W4iyF8bD5PTs7V5SWev-7" value="" style="edgeStyle=orthogonalEdgeStyle;rounded=0;orthogonalLoop=1;jettySize=auto;html=1;curved=1;exitX=1;exitY=0.25;exitDx=0;exitDy=0;entryX=0.5;entryY=0;entryDx=0;entryDy=0;" parent="1" source="trFHjS8OtI2W3_3FPiBj-10" target="u8j-KaxE-SIpMTuqpm7c-2" edge="1">
          <mxGeometry relative="1" as="geometry">
            <mxPoint x="1070" y="864" as="sourcePoint" />
            <mxPoint x="710" y="704" as="targetPoint" />
            <Array as="points">
              <mxPoint x="520" y="610" />
              <mxPoint x="1840" y="610" />
            </Array>
          </mxGeometry>
        </mxCell>
        <mxCell id="8W4iyF8bD5PTs7V5SWev-8" value="" style="edgeStyle=orthogonalEdgeStyle;rounded=0;orthogonalLoop=1;jettySize=auto;html=1;curved=1;exitX=0;exitY=0.25;exitDx=0;exitDy=0;entryX=1;entryY=0.25;entryDx=0;entryDy=0;" parent="1" source="trFHjS8OtI2W3_3FPiBj-5" target="u8j-KaxE-SIpMTuqpm7c-3" edge="1">
          <mxGeometry relative="1" as="geometry">
            <mxPoint x="-580.5" y="838.5" as="sourcePoint" />
            <mxPoint x="-220.5" y="677.5" as="targetPoint" />
            <Array as="points">
              <mxPoint x="-540" y="1150" />
              <mxPoint x="-540" y="360" />
              <mxPoint x="2140" y="360" />
              <mxPoint x="2140" y="1000" />
            </Array>
          </mxGeometry>
        </mxCell>
        <mxCell id="M5mpbalIPrIZrsdFD9r1-3" value="Улада &lt;b&gt;актыўна хавае інфармацыю пра&lt;/b&gt; дадзенае асобнае &lt;b&gt;ўздзеянне&lt;/b&gt; на грамадства. Прыклады:&lt;br&gt;- улада не публікуе інфармацыю, таму што яна &quot;для службовага выкарыстання&quot; або па іншай фармальнай прычыне;&lt;br&gt;- улада знішчае незалежныя СМІ, якія могуць агучыць інфармацыю;&lt;br&gt;- улада арыштоўвае грамадзян, якія абмяркоўваюць інфармацыю;&lt;br&gt;- ...&lt;br&gt; " style="text;html=1;align=left;verticalAlign=top;whiteSpace=wrap;rounded=0;fontSize=16;strokeColor=default;rotation=0;fillColor=default;" parent="1" vertex="1">
          <mxGeometry x="-3240" y="799" width="320" height="240" as="geometry" />
        </mxCell>
        <mxCell id="_Y3YXtQRD3ggY6TkbZ7i-1" value="Грамадства не будуе інструменты для кантролю ўлады. &lt;b&gt;Адсутнічаюць або недастаткова якасныя інструменты&lt;/b&gt;, якія дазваляюць грамадзяніну хутка і эфектыўна атрымваць інфармацыю пра кожнае асобнае ўздзеянне ўлады на грамадства.&lt;br&gt; " style="text;html=1;align=left;verticalAlign=top;whiteSpace=wrap;rounded=0;fontSize=16;strokeColor=default;rotation=0;fillColor=default;" parent="1" vertex="1">
          <mxGeometry x="-3640" y="799" width="320" height="160" as="geometry" />
        </mxCell>
      </root>
    </mxGraphModel>
  </diagram>
</mxfile>
